<?xml version="1.0" encoding="utf-8"?>
<!-- Generator: Adobe Illustrator 22.0.1, SVG Export Plug-In . SVG Version: 6.00 Build 0)  -->
<svg version="1.1" id="Слой_1" xmlns="http://www.w3.org/2000/svg" xmlns:xlink="http://www.w3.org/1999/xlink" x="0px" y="0px"
	 viewBox="0 0 194.8 139.9" style="enable-background:new 0 0 194.8 139.9;" xml:space="preserve">
<style type="text/css">
	.st0{clip-path:url(#SVGID_2_);}
	.st1{opacity:0.4;clip-path:url(#SVGID_4_);}
	.st2{clip-path:url(#SVGID_6_);fill:#862A5D;}
	.st3{clip-path:url(#SVGID_8_);fill:url(#SVGID_9_);}
	.st4{clip-path:url(#SVGID_11_);fill:#FAEFC1;}
	.st5{clip-path:url(#SVGID_11_);fill:#A13C19;}
	.st6{clip-path:url(#SVGID_13_);fill:url(#SVGID_14_);}
	.st7{clip-path:url(#SVGID_16_);fill:#F7CDD9;}
	.st8{clip-path:url(#SVGID_16_);fill:#83196A;}
	.st9{clip-path:url(#SVGID_18_);}
	.st10{clip-path:url(#SVGID_22_);fill:#83196A;}
	.st11{clip-path:url(#SVGID_22_);fill:#F7CDD9;}
	.st12{clip-path:url(#SVGID_24_);fill:url(#SVGID_25_);}
	.st13{opacity:0.4;clip-path:url(#SVGID_27_);}
	.st14{clip-path:url(#SVGID_29_);fill:#862A5D;}
	.st15{clip-path:url(#SVGID_31_);fill:#862A5D;}
	.st16{clip-path:url(#SVGID_33_);fill:#862A5D;}
	.st17{clip-path:url(#SVGID_35_);fill:#862A5D;}
	.st18{clip-path:url(#SVGID_27_);fill:#83196A;}
	.st19{clip-path:url(#SVGID_27_);fill:#F7CDD9;}
	.st20{opacity:0.3;clip-path:url(#SVGID_27_);}
	.st21{clip-path:url(#SVGID_37_);fill:#CFF3ED;}
	.st22{clip-path:url(#SVGID_39_);fill:#CFF3ED;}
	.st23{clip-path:url(#SVGID_41_);fill:#CFF3ED;}
	.st24{clip-path:url(#SVGID_43_);fill:#CFF3ED;}
	.st25{clip-path:url(#SVGID_45_);fill:#CFF3ED;}
	.st26{clip-path:url(#SVGID_47_);fill:#862A5D;}
	.st27{clip-path:url(#SVGID_27_);fill:#FFE599;}
	.st28{clip-path:url(#SVGID_27_);fill:#CF0824;}
	.st29{clip-path:url(#SVGID_27_);fill:#A71700;}
	.st30{clip-path:url(#SVGID_27_);fill:#FEAA0F;}
	.st31{clip-path:url(#SVGID_27_);fill:#7A1B29;}
	.st32{clip-path:url(#SVGID_27_);fill:#EB690C;}
	.st33{clip-path:url(#SVGID_27_);fill:#CC540A;}
	.st34{clip-path:url(#SVGID_27_);fill:#FFC34D;}
	.st35{clip-path:url(#SVGID_49_);fill:#A51701;}
	.st36{clip-path:url(#SVGID_27_);fill:#ED6540;}
	.st37{opacity:0.6;clip-path:url(#SVGID_27_);}
	.st38{clip-path:url(#SVGID_51_);fill:#FFEAAB;}
	.st39{clip-path:url(#SVGID_53_);fill:#A51701;}
	.st40{clip-path:url(#SVGID_55_);fill:#FFEAAB;}
	.st41{clip-path:url(#SVGID_57_);fill:#A51701;}
	.st42{clip-path:url(#SVGID_59_);fill:#FFEAAB;}
	.st43{clip-path:url(#SVGID_61_);fill:#A51701;}
	.st44{clip-path:url(#SVGID_63_);fill:#FFEAAB;}
	.st45{clip-path:url(#SVGID_27_);fill:#07C8C8;}
	.st46{clip-path:url(#SVGID_27_);fill:#0697B3;}
	.st47{clip-path:url(#SVGID_65_);fill:#A51701;}
	.st48{clip-path:url(#SVGID_67_);fill:#FFEBAF;}
	.st49{clip-path:url(#SVGID_69_);fill:#FFEAAB;}
	.st50{clip-path:url(#SVGID_71_);fill:#A51701;}
	.st51{clip-path:url(#SVGID_73_);fill:#FFEBAF;}
	.st52{clip-path:url(#SVGID_75_);fill:#FFEAAB;}
	.st53{clip-path:url(#SVGID_77_);fill:#A51701;}
	.st54{clip-path:url(#SVGID_79_);fill:#FFEBAF;}
	.st55{clip-path:url(#SVGID_81_);fill:#FFEAAB;}
	.st56{clip-path:url(#SVGID_83_);fill:url(#SVGID_84_);}
	.st57{clip-path:url(#SVGID_86_);fill:#A13C19;}
	.st58{clip-path:url(#SVGID_86_);fill:#FAEFC1;}
	.st59{clip-path:url(#SVGID_88_);fill:url(#SVGID_89_);}
	.st60{clip-path:url(#SVGID_91_);fill:#862A5D;}
	.st61{opacity:0.4;clip-path:url(#SVGID_91_);}
	.st62{clip-path:url(#SVGID_93_);fill:#862A5D;}
	.st63{clip-path:url(#SVGID_95_);fill:#862A5D;}
	.st64{clip-path:url(#SVGID_97_);fill:#862A5D;}
	.st65{opacity:0.3;clip-path:url(#SVGID_91_);}
	.st66{clip-path:url(#SVGID_99_);fill:#862A5D;}
	.st67{clip-path:url(#SVGID_101_);fill:#862A5D;}
	.st68{clip-path:url(#SVGID_91_);fill:#A13C19;}
	.st69{clip-path:url(#SVGID_91_);fill:#FAEFC1;}
	.st70{opacity:0.45;clip-path:url(#SVGID_91_);}
	.st71{clip-path:url(#SVGID_103_);fill:#CFF3ED;}
	.st72{clip-path:url(#SVGID_105_);fill:#CFF3ED;}
	.st73{clip-path:url(#SVGID_107_);fill:#CFF3ED;}
	.st74{clip-path:url(#SVGID_109_);fill:#CFF3ED;}
	.st75{clip-path:url(#SVGID_111_);fill:#CFF3ED;}
	.st76{clip-path:url(#SVGID_113_);fill:#862A5D;}
	.st77{clip-path:url(#SVGID_115_);fill:url(#SVGID_116_);}
	.st78{clip-path:url(#SVGID_118_);fill:#A13C19;}
	.st79{clip-path:url(#SVGID_118_);fill:#FAEFC1;}
	.st80{opacity:0.4;clip-path:url(#SVGID_118_);}
	.st81{clip-path:url(#SVGID_120_);fill:#862A5D;}
	.st82{clip-path:url(#SVGID_122_);fill:url(#SVGID_123_);}
	.st83{clip-path:url(#SVGID_125_);fill:#A13C19;}
	.st84{clip-path:url(#SVGID_125_);fill:#FAEFC1;}
	.st85{opacity:0.4;clip-path:url(#SVGID_125_);}
	.st86{clip-path:url(#SVGID_127_);fill:#862A5D;}
	.st87{clip-path:url(#SVGID_129_);fill:url(#SVGID_130_);}
	.st88{clip-path:url(#SVGID_132_);fill:#A13C19;}
	.st89{clip-path:url(#SVGID_132_);fill:#FAEFC1;}
	.st90{opacity:0.4;clip-path:url(#SVGID_132_);}
	.st91{clip-path:url(#SVGID_134_);fill:#862A5D;}
	.st92{clip-path:url(#SVGID_136_);fill:url(#SVGID_137_);}
	.st93{clip-path:url(#SVGID_139_);fill:#A13C19;}
	.st94{clip-path:url(#SVGID_139_);fill:#FAEFC1;}
	.st95{opacity:0.4;clip-path:url(#SVGID_139_);}
	.st96{clip-path:url(#SVGID_141_);fill:#862A5D;}
	.st97{clip-path:url(#SVGID_143_);fill:url(#SVGID_144_);}
	.st98{clip-path:url(#SVGID_146_);fill:#A13C19;}
	.st99{clip-path:url(#SVGID_146_);fill:#FAEFC1;}
	.st100{opacity:0.4;clip-path:url(#SVGID_146_);}
	.st101{clip-path:url(#SVGID_148_);fill:#862A5D;}
	.st102{clip-path:url(#SVGID_146_);fill:#A11EA2;}
	.st103{opacity:0.65;clip-path:url(#SVGID_146_);}
	.st104{clip-path:url(#SVGID_150_);fill:#CFF3ED;}
	.st105{clip-path:url(#SVGID_146_);fill:#632745;}
	.st106{clip-path:url(#SVGID_146_);fill:#FFFFC4;}
	.st107{clip-path:url(#SVGID_152_);fill:#862A5D;}
	.st108{clip-path:url(#SVGID_154_);fill:#862A5D;}
	.st109{clip-path:url(#SVGID_146_);fill:#07C8C8;}
	.st110{opacity:0.3;clip-path:url(#SVGID_146_);}
	.st111{clip-path:url(#SVGID_156_);fill:#FFEBAF;}
	.st112{clip-path:url(#SVGID_158_);fill:#FFEBAF;}
	.st113{clip-path:url(#SVGID_146_);fill:#0697B3;}
	.st114{clip-path:url(#SVGID_146_);fill:#006A94;}
	.st115{opacity:0.6;clip-path:url(#SVGID_146_);}
	.st116{clip-path:url(#SVGID_160_);fill:#FFEBAF;}
	.st117{clip-path:url(#SVGID_162_);fill:#FFEBAF;}
	.st118{clip-path:url(#SVGID_164_);fill:#FFEBAF;}
	.st119{clip-path:url(#SVGID_166_);fill:#FFEBAF;}
	.st120{clip-path:url(#SVGID_168_);fill:#FFEBAF;}
	.st121{clip-path:url(#SVGID_146_);fill:#FAFAED;}
	.st122{clip-path:url(#SVGID_146_);fill:#70E0CD;}
	.st123{clip-path:url(#SVGID_170_);fill:#FFEBAF;}
	.st124{clip-path:url(#SVGID_172_);fill:#FFEBAF;}
	.st125{clip-path:url(#SVGID_174_);fill:#FFEBAF;}
	.st126{clip-path:url(#SVGID_176_);fill:#FFEBAF;}
	.st127{clip-path:url(#SVGID_178_);fill:#FFEBAF;}
	.st128{clip-path:url(#SVGID_180_);fill:#FFEBAF;}
	.st129{clip-path:url(#SVGID_182_);fill:#FFEBAF;}
</style>
<g>
	<defs>
		<rect id="SVGID_1_" width="194.8" height="139.9"/>
	</defs>
	<clipPath id="SVGID_2_">
		<use xlink:href="#SVGID_1_"  style="overflow:visible;"/>
	</clipPath>
	<g class="st0">
		<defs>
			<rect id="SVGID_3_" width="194.8" height="139.9"/>
		</defs>
		<clipPath id="SVGID_4_">
			<use xlink:href="#SVGID_3_"  style="overflow:visible;"/>
		</clipPath>
		<g class="st1">
			<g>
				<defs>
					<rect id="SVGID_5_" x="7.6" y="17.7" width="179.2" height="122.2"/>
				</defs>
				<clipPath id="SVGID_6_">
					<use xlink:href="#SVGID_5_"  style="overflow:visible;"/>
				</clipPath>
				<path class="st2" d="M169.9,103.8l16.9-21.3l0,0l0,0l-17.7-3.5l-1.2-0.2l-7.4-1.5l2.4-14.5l-11.3,0.4l5.3-16.4l-13,0.9l3.6-10.4
					L124.3,38l3.9-20.3l-58.6,4.8l1.3,8.7l-3.8-2.8l3,4.5c0.5,0.7,0.9,1.4,1.4,2.1l0.7,4.8L51,40.3l3.2,13.5l-11.8,0.8l3.3,12.2
					l-13,0.4l1.6,10.2L7.6,82.6l18.6,19l-3.5,24.8l32.1-6.7l0.8,0.5l-3.6-9.4h-0.7l0,0l6.7,0l4.4,15.9l6.5,0.3l0,0.1h3.1l1.9,8
					l12.6-0.5l0.8,5.2h17.5l1.1-5.9l1.3,0l1.7-0.1l5.2-0.2l1.7-4.9l0.5,0l13.9,0.5l6-18.6l9.5,0l0,0l-0.7,0l-3.7,10.4l0.9-0.7
					l-0.1,0.2l0,0l0,0l18.2,3.1l12,2v0l0,0L169.9,103.8z"/>
			</g>
		</g>
	</g>
	<g class="st0">
		<defs>
			<polygon id="SVGID_7_" points="33.7,65.4 1.2,71.8 21.2,92.9 17.3,120.4 51.8,113 			"/>
		</defs>
		<clipPath id="SVGID_8_">
			<use xlink:href="#SVGID_7_"  style="overflow:visible;"/>
		</clipPath>
		
			<radialGradient id="SVGID_9_" cx="0" cy="139.92" r="1" gradientTransform="matrix(20.4247 -65.5419 -65.5419 -20.4247 9178.748 3006.8862)" gradientUnits="userSpaceOnUse">
			<stop  offset="0" style="stop-color:#FAF1D5"/>
			<stop  offset="2.619452e-02" style="stop-color:#FBECB7"/>
			<stop  offset="7.441470e-02" style="stop-color:#FCE387"/>
			<stop  offset="0.124" style="stop-color:#FDDC5E"/>
			<stop  offset="0.1742" style="stop-color:#FED63C"/>
			<stop  offset="0.2253" style="stop-color:#FED222"/>
			<stop  offset="0.2774" style="stop-color:#FFCF0F"/>
			<stop  offset="0.3314" style="stop-color:#FFCD04"/>
			<stop  offset="0.39" style="stop-color:#FFCC00"/>
			<stop  offset="0.6341" style="stop-color:#F8B108"/>
			<stop  offset="1" style="stop-color:#EB8117"/>
		</radialGradient>
		<polygon class="st3" points="-14.4,115.5 5.7,51.1 67.4,70.3 47.3,134.8 		"/>
	</g>
	<g class="st0">
		<defs>
			<rect id="SVGID_10_" width="194.8" height="139.9"/>
		</defs>
		<clipPath id="SVGID_11_">
			<use xlink:href="#SVGID_10_"  style="overflow:visible;"/>
		</clipPath>
		<path class="st4" d="M33.7,65.4c-2.7,0.6-5.4,1.2-8.1,1.9c-2.7,0.6-5.4,1.2-8.1,1.8l-8.1,1.7l-8.1,1.7l0.3-1
			c3.3,3.5,6.7,7,10,10.5l9.9,10.6l0.2,0.2l0,0.3c-0.7,4.6-1.4,9.1-2.1,13.7c-0.3,2.3-0.7,4.6-1.1,6.8c-0.4,2.3-0.8,4.6-1.2,6.8
			c0.2-2.3,0.5-4.6,0.7-6.9c0.3-2.3,0.5-4.6,0.8-6.9c0.6-4.6,1.1-9.2,1.7-13.8l0.2,0.5l-10-10.5c-3.3-3.5-6.6-7-9.9-10.6L0,71.4
			l1.1-0.2l8.1-1.6l8.2-1.5c2.7-0.5,5.4-1,8.2-1.4C28.3,66.3,31,65.8,33.7,65.4"/>
		<path class="st5" d="M17.3,120.4c2.8-0.7,5.7-1.4,8.6-2.1c2.8-0.7,5.7-1.4,8.6-2l8.6-2l8.6-1.9l-0.5,0.9c-3-7.9-6-15.8-9-23.8
			c-2.9-8-5.8-15.9-8.5-24c3.3,7.8,6.4,15.7,9.6,23.6c3.1,7.9,6.1,15.8,9.1,23.7l0.3,0.7l-0.8,0.2l-8.6,1.8l-8.6,1.7
			c-2.9,0.6-5.8,1.2-8.6,1.7C23.1,119.4,20.2,119.9,17.3,120.4"/>
	</g>
	<g class="st0">
		<defs>
			<polygon id="SVGID_12_" points="38.7,40.9 59.9,120.7 132.9,123.6 161.3,32.2 			"/>
		</defs>
		<clipPath id="SVGID_13_">
			<use xlink:href="#SVGID_12_"  style="overflow:visible;"/>
		</clipPath>
		
			<radialGradient id="SVGID_14_" cx="0" cy="139.92" r="1" gradientTransform="matrix(14.3278 110.0502 110.0502 -14.3278 -15318.2344 1995.7422)" gradientUnits="userSpaceOnUse">
			<stop  offset="0" style="stop-color:#FF9694"/>
			<stop  offset="4.319690e-02" style="stop-color:#FB8D95"/>
			<stop  offset="0.3241" style="stop-color:#E0569E"/>
			<stop  offset="0.4603" style="stop-color:#D641A1"/>
			<stop  offset="0.5963" style="stop-color:#D03DA1"/>
			<stop  offset="0.7773" style="stop-color:#BF32A1"/>
			<stop  offset="0.9831" style="stop-color:#A420A2"/>
			<stop  offset="1" style="stop-color:#A11EA2"/>
		</radialGradient>
		<polygon class="st6" points="159.3,16.4 173.1,122.1 40.7,139.3 27,33.7 		"/>
	</g>
	<g class="st0">
		<defs>
			<rect id="SVGID_15_" width="194.8" height="139.9"/>
		</defs>
		<clipPath id="SVGID_16_">
			<use xlink:href="#SVGID_15_"  style="overflow:visible;"/>
		</clipPath>
		<path class="st7" d="M161.3,32.2L146,33.7c-5.1,0.5-10.2,1.1-15.3,1.3l-30.7,2.2l-61.3,4.4l0.6-0.9L50,80.6l2.7,10l1.3,5l1.2,5
			l4.8,20.1l-5.8-19.8l-1.5-5l-1.3-5l-2.7-10L38,41.1l-0.2-0.8l0.8-0.1l61.3-4.4l30.7-2.2c5.1-0.5,10.2-0.6,15.3-0.8L161.3,32.2z"/>
		<path class="st8" d="M59.9,120.7c6.1,0,12.2,0.1,18.3,0.1c3,0,6.1,0.2,9.1,0.3l9.1,0.4l36.5,1.5l-0.7,0.5l14.2-45.7l7.1-22.9
			c0.6-1.9,1.2-3.8,1.9-5.7l2-5.7l3.9-11.3l-3.2,11.6l-1.6,5.8c-0.5,1.9-1.1,3.9-1.7,5.7l-7.1,22.9l-14.2,45.7l-0.2,0.5l-0.5,0
			l-36.5-1.5l-9.1-0.4c-3-0.1-6.1-0.2-9.1-0.4C72.1,121.6,66,121.2,59.9,120.7"/>
	</g>
	<g class="st0">
		<defs>
			<polygon id="SVGID_17_" points="47.9,25.1 72.4,130 115.6,128.4 151.3,21.6 			"/>
		</defs>
		<clipPath id="SVGID_18_">
			<use xlink:href="#SVGID_17_"  style="overflow:visible;"/>
		</clipPath>
		<g class="st9">
			<g>
				<defs>
					
						<rect id="SVGID_19_" x="41" y="15.1" transform="matrix(0.9908 -0.1354 0.1354 0.9908 -9.3483 14.1816)" width="117.1" height="121.4"/>
				</defs>
				<clipPath id="SVGID_20_">
					<use xlink:href="#SVGID_19_"  style="overflow:visible;"/>
				</clipPath>
				<g style="clip-path:url(#SVGID_20_);">
					
						<image style="overflow:visible;" width="552" height="568" xlink:href="A59B9B35.jpg"  transform="matrix(0.24 0 0 0.24 33.36 7.68)">
					</image>
				</g>
			</g>
		</g>
	</g>
	<g class="st0">
		<defs>
			<rect id="SVGID_21_" width="194.8" height="139.9"/>
		</defs>
		<clipPath id="SVGID_22_">
			<use xlink:href="#SVGID_21_"  style="overflow:visible;"/>
		</clipPath>
		<path class="st10" d="M151.3,21.6c-1.3,4.5-2.6,9-4,13.5c-0.7,2.2-1.3,4.5-2.1,6.7c-0.8,2.2-1.5,4.4-2.2,6.7l-8.9,26.7l-17.9,53.4
			l-0.2,0.4l-0.5,0L94,129.9c-1.8,0.1-3.6,0.1-5.4,0.1l-5.4,0l-10.8,0l10.8-0.8l5.4-0.4c1.8-0.1,3.6-0.3,5.4-0.3l21.6-0.8l-0.6,0.5
			l17.9-53.4l8.9-26.7c0.7-2.2,1.5-4.4,2.2-6.7c0.7-2.2,1.6-4.4,2.4-6.6C148,30.4,149.6,26,151.3,21.6"/>
		<path class="st11" d="M72.4,130c-2.3-8.7-4.5-17.4-6.8-26.1l-6.1-26.2L47.2,25.2L47,24.4l0.8,0l51.7-1.7l25.8-0.8
			c8.6-0.1,17.2-0.2,25.9-0.2c-8.6,0.6-17.2,1-25.8,1.5L99.6,24l-51.7,1.7l0.6-0.8l12.2,52.5l6.1,26.2
			C68.8,112.4,70.6,121.2,72.4,130"/>
	</g>
	<g class="st0">
		<defs>
			<polygon id="SVGID_23_" points="130.7,0 67.8,5.3 86.8,135.3 105.5,135.3 			"/>
		</defs>
		<clipPath id="SVGID_24_">
			<use xlink:href="#SVGID_23_"  style="overflow:visible;"/>
		</clipPath>
		
			<radialGradient id="SVGID_25_" cx="0" cy="139.92" r="1" gradientTransform="matrix(29.7351 143.1687 143.1687 -29.7351 -19940.6758 4146.9038)" gradientUnits="userSpaceOnUse">
			<stop  offset="0" style="stop-color:#FF9694"/>
			<stop  offset="4.319690e-02" style="stop-color:#FB8D95"/>
			<stop  offset="0.3241" style="stop-color:#E0569E"/>
			<stop  offset="0.4603" style="stop-color:#D641A1"/>
			<stop  offset="0.5963" style="stop-color:#D03DA1"/>
			<stop  offset="0.7773" style="stop-color:#BF32A1"/>
			<stop  offset="0.9831" style="stop-color:#A420A2"/>
			<stop  offset="1" style="stop-color:#A11EA2"/>
		</radialGradient>
		<polygon class="st12" points="128.1,-12.5 157.6,129.7 70.4,147.8 40.9,5.6 		"/>
	</g>
	<g class="st0">
		<defs>
			<rect id="SVGID_26_" width="194.8" height="139.9"/>
		</defs>
		<clipPath id="SVGID_27_">
			<use xlink:href="#SVGID_26_"  style="overflow:visible;"/>
		</clipPath>
		<g class="st13">
			<g>
				<defs>
					<rect id="SVGID_28_" x="106.7" y="22.5" width="24" height="106.3"/>
				</defs>
				<clipPath id="SVGID_29_">
					<use xlink:href="#SVGID_28_"  style="overflow:visible;"/>
				</clipPath>
				<polygon class="st14" points="126.5,22.5 106.7,128.7 110,128.6 130.7,22.5 				"/>
			</g>
		</g>
		<g class="st13">
			<g>
				<defs>
					<rect id="SVGID_30_" x="117.9" y="33" width="31.6" height="90"/>
				</defs>
				<clipPath id="SVGID_31_">
					<use xlink:href="#SVGID_30_"  style="overflow:visible;"/>
				</clipPath>
				<polygon class="st15" points="147.3,33.5 117.9,123 121.8,123 149.5,33 				"/>
			</g>
		</g>
		<g class="st13">
			<g>
				<defs>
					<rect id="SVGID_32_" x="69.2" y="24.4" width="16.7" height="105.3"/>
				</defs>
				<clipPath id="SVGID_33_">
					<use xlink:href="#SVGID_32_"  style="overflow:visible;"/>
				</clipPath>
				<polygon class="st16" points="70.6,24.4 85.9,129.5 82,129.7 69.2,24.4 				"/>
			</g>
		</g>
		<g class="st13">
			<g>
				<defs>
					<rect id="SVGID_34_" x="51.4" y="40" width="18.9" height="81.1"/>
				</defs>
				<clipPath id="SVGID_35_">
					<use xlink:href="#SVGID_34_"  style="overflow:visible;"/>
				</clipPath>
				<polygon class="st17" points="51.4,40 70.3,121.1 67,121.1 				"/>
			</g>
		</g>
		<path class="st18" d="M130.7,0c-0.8,5.7-1.7,11.3-2.5,17c-0.4,2.8-1,5.6-1.5,8.5l-1.6,8.5l-6.3,33.8l-12.6,67.6l-0.1,0.6l-0.5,0
			c-6.2-0.2-12.5-0.4-18.7-0.7c6.2-0.3,12.5-0.4,18.7-0.7l-0.6,0.5l12.6-67.6l6.3-33.8l1.6-8.5c0.6-2.8,1-5.7,1.6-8.4
			C128.2,11.2,129.4,5.6,130.7,0"/>
		<path class="st19" d="M86.8,135.3l-2.8-16.2l-1.4-8.1l-1.2-8.1l-4.7-32.5l-9.5-65L67,4.6l0.7-0.1l31.4-2.6
			c2.6-0.2,5.2-0.5,7.9-0.6l7.9-0.4L130.7,0L115,1.8l-7.8,0.9c-2.6,0.3-5.2,0.4-7.9,0.7L67.9,5.9l0.6-0.8l9.5,65l4.7,32.5l1.2,8.1
			l1,8.2L86.8,135.3z"/>
		<g class="st20">
			<g>
				<defs>
					<rect id="SVGID_36_" x="42.7" y="42.9" width="18.1" height="75.3"/>
				</defs>
				<clipPath id="SVGID_37_">
					<use xlink:href="#SVGID_36_"  style="overflow:visible;"/>
				</clipPath>
				<polygon class="st21" points="42.7,43.6 60.8,118.1 46.8,45.1 50,42.9 				"/>
			</g>
		</g>
		<g class="st20">
			<g>
				<defs>
					<rect id="SVGID_38_" x="53.2" y="27.9" width="21.7" height="98.2"/>
				</defs>
				<clipPath id="SVGID_39_">
					<use xlink:href="#SVGID_38_"  style="overflow:visible;"/>
				</clipPath>
				<polygon class="st22" points="74.9,126.1 53.2,28.6 67.8,27.9 59.9,30.9 				"/>
			</g>
		</g>
		<g class="st20">
			<g>
				<defs>
					<rect id="SVGID_40_" x="73.1" y="4.7" width="52.9" height="127.1"/>
				</defs>
				<clipPath id="SVGID_41_">
					<use xlink:href="#SVGID_40_"  style="overflow:visible;"/>
				</clipPath>
				<polygon class="st23" points="73.1,9.2 125.9,4.7 124.9,11.9 123.7,7 79.7,13.3 90.3,131.9 				"/>
			</g>
		</g>
		<g class="st20">
			<g>
				<defs>
					<rect id="SVGID_42_" x="131.9" y="25.3" width="14.6" height="9.3"/>
				</defs>
				<clipPath id="SVGID_43_">
					<use xlink:href="#SVGID_42_"  style="overflow:visible;"/>
				</clipPath>
				<polygon class="st24" points="131.9,25.3 146.5,25.3 143.6,34.5 143.6,28.4 				"/>
			</g>
		</g>
		<g class="st20">
			<g>
				<defs>
					<rect id="SVGID_44_" x="149.1" y="35.7" width="9.1" height="10.6"/>
				</defs>
				<clipPath id="SVGID_45_">
					<use xlink:href="#SVGID_44_"  style="overflow:visible;"/>
				</clipPath>
				<polygon class="st25" points="149.1,36.5 158.3,35.7 154.3,46.3 154.5,38.6 				"/>
			</g>
		</g>
		<g class="st13">
			<g>
				<defs>
					<rect id="SVGID_46_" x="69.8" y="8.4" width="57" height="40.3"/>
				</defs>
				<clipPath id="SVGID_47_">
					<use xlink:href="#SVGID_46_"  style="overflow:visible;"/>
				</clipPath>
				<path class="st26" d="M123,15.4c-0.8,1.4-1.7,2.7-2.8,3.9c-0.9-1.6-2.3-2.9-4-3.7c-1.9-0.9-4.1-1-6.1-0.5l-2.3-3.6l-0.9-1.4
					l-0.7,1.5c-0.5,1-1.1,2.1-1.8,3c-2.3-0.9-4.9-1.1-7.4-0.5c-2.3,0.6-4.5,1.8-6.2,3.5L88.3,15L87,13.6l-0.4,1.8l-1,4.6
					c-1.2,0.2-2.4,0.5-3.4,1.1c-1,0.6-2,1.4-2.7,2.4c-1.9-0.7-3.7-1.7-5.3-2.9l-4.5-3.4l3.1,4.7c3.7,5.8,6.8,12,9,18.5
					c-0.2,0.2-0.5,0.3-0.7,0.6c-0.4,0.5-0.8,1.1-0.9,1.8c-0.1,0.7,0,1.4,0.4,2c0.4,0.6,1,1,1.6,1.2c1,0.3,1.8,0.5,2.8,0.8
					c0.9,0.2,1.9,0.5,2.8,0.7c3.8,0.8,7.6,1.2,11.5,1.2c1,0,1.9,0,2.9-0.1c1-0.1,1.9-0.2,2.9-0.4c1.9-0.3,3.8-0.7,5.6-1.3
					c3.7-1.1,7.2-2.5,10.5-4.4c1.5-0.7,2.1-2.7-0.1-3.6c0.2-3.9,0.6-7.7,1.2-11.5c0.3-1.9,0.7-3.8,1.1-5.6c0.2-0.9,0.5-1.9,0.7-2.8
					c0.2-0.9,0.4-1.9,0.7-2.8l1.9-7.7L123,15.4z"/>
			</g>
		</g>
		<path class="st27" d="M76.1,38.4c0.1-0.7,0.5-1.4,0.9-1.8c0.2-0.2,0.5-0.4,0.7-0.6c-2.4-6.8-5.5-13.3-9.4-19.4l-3.2-4.9l4.7,3.6
			c1.7,1.3,3.5,2.3,5.5,3.1c0.8-1,1.7-1.9,2.8-2.5c1.1-0.6,2.3-1,3.6-1.2l1-4.8L83.2,8l1.3,1.4l2.6,2.8c1.8-1.8,4-3.1,6.5-3.7
			c2.6-0.6,5.3-0.4,7.7,0.5c0.7-1,1.4-2.1,1.9-3.2l0.8-1.6l0.9,1.5l2.4,3.7c2.1-0.5,4.4-0.4,6.4,0.6c1.8,0.8,3.2,2.2,4.2,3.9
			c1.2-1.2,2.2-2.6,3-4.1l3.9-7.4l-2,8.1c-0.2,1-0.4,2-0.7,2.9c-0.2,1-0.5,1.9-0.7,2.9c-0.5,2-0.9,3.9-1.2,5.9
			c-0.7,4-1.1,8-1.3,12.1c-0.3-4.1-0.3-8.1,0.1-12.2c0.2-2,0.4-4.1,0.7-6.1c0.1-0.4,0.1-0.8,0.2-1.2c-0.5,0.5-0.9,1-1.4,1.5l-1.1,1
			l-0.6-1.4c-0.7-1.8-2.1-3.3-3.9-4.1c-1.7-0.8-3.8-0.9-5.7-0.3l-0.7,0.2l-0.4-0.7l-1.9-2.9c-0.5,0.9-1.1,1.8-1.7,2.6l-0.5,0.7
			l-0.8-0.3c-2.3-1-4.8-1.3-7.2-0.7c-2.4,0.6-4.6,2-6.2,3.9l-0.7,0.9l-0.8-0.8l-2-2.2l-0.8,3.7l-0.2,0.7l-0.8,0
			c-1.2,0.1-2.4,0.4-3.5,1c-1.1,0.6-2,1.5-2.6,2.5l-0.4,0.7l-0.7-0.3c-1.1-0.4-2.1-0.8-3-1.3c3.1,5.4,5.7,11,7.7,16.9l0.3,0.9
			l-0.9,0.3c-0.7,0.3-1.2,0.8-1.3,1.3c-0.1,0.5,0.2,1,0.8,1.2l2.8,0.8c0.9,0.2,1.9,0.5,2.8,0.7c3.8,0.8,7.7,1.2,11.6,1.2
			c1.9-0.1,3.9-0.1,5.8-0.2c1.9-0.2,3.9-0.4,5.8-0.8c3.9-0.7,7.6-1.9,11.3-3.4c-3.5,1.9-7.2,3.5-11,4.6c-1.9,0.6-3.9,1-5.9,1.4
			c-1,0.2-2,0.3-3,0.4c-1,0.1-2,0.1-3,0.1c-4,0-8.1-0.4-12-1.3c-1-0.2-2-0.5-2.9-0.7c-1-0.3-1.9-0.5-2.9-0.8
			c-0.6-0.2-1.3-0.7-1.7-1.3C76.1,39.9,76,39.1,76.1,38.4"/>
		<path class="st28" d="M80.8,31.8c12.1-3.2,24.7-3.3,37-5.6c0.5-2.9,0.9-6,0.4-8.9c-0.5-2.9-2.6-5.5-5.4-6.5
			c-2.7-1.1-6-0.6-8.4,1.2c-2.9-2.3-6.7-3.3-10.3-2.5c-3.6,0.8-6.9,3.3-8.6,6.6c-2.1-0.7-4.3-0.5-6.3,0.4c-2,0.9-3.6,2.7-4.4,4.7
			C76.3,24.7,78.7,28.6,80.8,31.8"/>
		<path class="st29" d="M109.1,12.4c-0.9,2.1-0.9,4.6,0.1,6.6c0.5,1,1.3,2,2.5,2.2c1.1,0.2,2.3-0.4,2.9-1.3c0.7-0.9,0.9-2.1,0.8-3.2
			c-0.1-1.1-0.3-2.5-0.6-3.6c2.6,2,3.8,5.9,2.6,9c-0.6,1.6-1.8,3.1-3.4,3.6c-1.5,0.4-3.1,0.1-4.4-0.7c-2.2-1.2-3.9-3.5-4.2-6
			c-0.3-2.5,1.1-5.2,3.4-6.3L109.1,12.4z"/>
		<path class="st29" d="M99.3,11.7c1.5,1.6,2.7,3.4,3.4,5.4c0.6,2,0.6,4.4-0.5,6.2c-1.2,2-3.4,3.2-5.7,3.4c-3.2,0.2-6.4-1.6-7.8-4.4
			c-1.4-2.9-0.6-6.6,1.8-8.7c0,2.6,1,4.9,2.6,6.9c0.5,0.7,1.2,1.4,2.1,1.6c1,0.2,2.1-0.2,2.9-0.9c1.3-1.1,2-2.9,2.1-4.6
			C100.2,14.9,99.8,13.4,99.3,11.7"/>
		<path class="st29" d="M81.4,16.6c1.5,0.7,2.8,2,3.7,3.4c0.9,1.4,1.5,3,1.9,4.7c0.3,1,0.5,2,0.4,3c-0.1,1-0.5,2.1-1.3,2.7
			c-0.9,0.7-2,0.8-3.1,0.7c-2.5-0.3-4.8-2.2-5.8-4.6c-1-2.4-0.9-5.1,0.1-7.5c0.4,2.4,1.5,4.4,2.8,6.4c0.4,0.7,1,1.4,1.7,1.8
			c0.7,0.4,1.7,0.5,2.4-0.1c0.5-0.4,0.7-1,0.7-1.6c0-0.6-0.2-1.2-0.3-1.8C83.7,21.4,82.8,18.8,81.4,16.6"/>
		<path class="st30" d="M79,36.5c-2.4-7.2-5.7-14-9.8-20.4c2.4,1.9,5.1,3.3,8.1,4c-0.4,2.6,0.3,5.3,1.8,7.3c0.7,1,1.7,1.8,2.8,2.2
			c1.1,0.4,2.5,0.2,3.4-0.6c1.3-1.2,1.2-3.2,0.7-4.9c-0.7-2.4-2.3-4.4-4.2-6c0.8-2.7,1.4-5.2,1.9-8c2,2.2,4,4.5,6.2,6.5
			c-1,2.1-0.6,4.8,1,6.5c1.6,1.7,4.2,2.3,6.4,1.6c2.2-0.8,3.9-2.8,4.3-5.1c0.3-2.3-0.5-4.8-2.3-6.3c1.8-2.1,3.5-4.4,4.7-6.9
			c1.6,2.2,3,4.7,4.5,6.9c-1.4,1-2.3,2.7-2.4,4.5c-0.1,1.8,0.5,3.5,1.4,5c0.8,1.2,2,2.4,3.5,2.6c1.6,0.3,3.2-0.5,4.3-1.6
			c0.9-0.8,1.7-1.9,1.9-3.2c0.2-1.2-0.2-2.8-1.1-3.6c2.3-1.8,4.3-4,5.7-6.7c-2,7.9-3,16-2.9,24.1C105.9,31.5,91.4,33,79,36.5"/>
		<path class="st30" d="M118.9,34.4c-13.2-4.1-26.5-2.5-39.9,2.1c-2.6,0.9-2.5,3.8-0.4,4.4c14.1,4.4,27.4,3.5,40.5-2.7
			C120.6,37.5,121.3,35.4,118.9,34.4"/>
		<path class="st31" d="M80.3,39.6c11.3,2.1,25.2,1.3,36.2-2.1C104.6,33.9,91.5,34.5,80.3,39.6"/>
		<path class="st32" d="M99.5,27.6c2.8-1.4,5.5-2.8,8-4.3c1,1.3,2.2,2.2,3.5,2.4c1.1,0.2,2.3-0.1,3.4-0.8c0.4-0.3,0.8-0.6,1.2-0.9
			c0.8-0.7,1.7-1.9,2-3.4c0.2-1.2-0.1-2.5-0.8-3.5c1.3-1,2.5-1.9,3.6-2.9c-1.3,6.4-2,13-2,19.6c-11.7-2.5-25.6-1.7-39.2,2.1
			c-0.1-0.3-0.2-0.5-0.3-0.8C85.3,33.6,92.3,31.1,99.5,27.6"/>
		<path class="st33" d="M104.6,31.9c3.6,0,7.6-1.6,10.2-4.1c2.6-2.5,4-6.3,3.1-9.8c0.4-0.4,0.9-0.8,1.4-1.2c-0.5,5.3-1,10.7-1.5,16
			C113.8,32.3,108.7,32,104.6,31.9"/>
		<path class="st34" d="M100.6,23.3c1.2-1.5,1.9-3.4,1.9-5.3c0-1.9-0.8-3.8-2-5.3c1.5-1.4,2.8-3.1,3.8-4.9c0.4,0.7,1,1.4,1.5,2.1
			c-2.7,3.1-3.7,7.6-2.2,11.5C102.9,22.1,101.5,22.7,100.6,23.3"/>
		<path class="st34" d="M82,30.4c1.4,0.6,3,0,4-1.1c1-1.1,1.3-2.7,1.1-4.1c-0.2-1.5-0.9-2.8-1.7-4c-0.8-1.2-2-2.3-2.8-3.5
			c0.6-2.1,1-4.3,1.5-6.4l3,3.1c-1.2,1.8-1.5,4.3-0.9,6.4c0.6,2.1,1.8,4,3,5.8c-0.9,1.2-1.8,2.8-3.1,3.7C85,31.1,83.4,31,82,30.4"/>
		<path class="st34" d="M78.9,34.5c-2.1-5.9-5.1-11.5-8.3-16.8c1.8,1,3.6,2,5.5,2.8c0.1,5,2.2,9.9,5.5,13.7
			C80.9,34.5,79.7,34.6,78.9,34.5"/>
		<path class="st27" d="M102.4,15c-0.4-0.8-0.8-1.5-1.1-2.3c1-1.4,2-2.6,3.2-3.8c0.1,0.3,0.3,0.7,0.6,0.9
			C103.8,11.2,102.8,13.1,102.4,15"/>
		<path class="st27" d="M84.9,19.2c0-1.8,0.5-3.4,1.3-4.9c-0.7-0.6-1.3-1.2-1.8-2c-0.4,1.7-0.8,3.4-1.2,5.1
			C83.7,18,84.4,18.6,84.9,19.2"/>
		<path class="st27" d="M87.5,28.5c0.3-1.1,0.3-2.2,0.2-3.3l1,1.4C88.4,27.2,87.9,28,87.5,28.5"/>
		<path class="st27" d="M79.2,33.9c-2-5.1-4.4-9.9-7.2-14.7c0.8,0.8,1.8,1.3,2.9,1.6c1.1,4.6,3,9,5.6,12.9
			C80.2,33.8,79.6,33.9,79.2,33.9"/>
		<path class="st32" d="M100.5,34.7c0.3-0.5,0-1.1-0.4-1.5c6.3-1.2,18.9,1,18.9,1.8c0.8-0.1,1.8,1.8,0.3,2.6c-0.8,0.3-1.7,0.6-2.5,1
			c0.3-0.4,0.5-0.8,0.5-1.2C112,35.6,106.1,34.6,100.5,34.7"/>
		<path class="st33" d="M110.7,35.3c0.1-0.5,0.2-0.9,0.3-1.4c2.8-0.1,5.7,0.5,8.3,1.6c0.2,0.4,0.3,1,0.1,1.4
			c-0.2,0.4-0.5,0.7-0.9,0.9C116.4,36.2,113.2,35.2,110.7,35.3"/>
		<path class="st34" d="M82.7,36c-1.6,0.3-3.4,0.7-4.5,1.9c-0.3,0.3-0.5,0.7-0.5,1.1c0,0.4,0.2,0.9,0.5,1.1c0.5,0.3,1.2-0.1,1.6-0.5
			c1.9-1.3,4-2.3,6.2-3C84.9,37,83.7,36.4,82.7,36"/>
		<path class="st27" d="M81.3,36.9c0.1,0,0.3,0,0.4,0.1c0.1,0.1,0,0.2,0,0.3c0,0.1-0.1,0.2-0.2,0.2c-0.5,0.5-1.2,0.9-1.8,1.1
			c-0.2,0.1-0.3,0.1-0.5,0c-0.2-0.1-0.2-0.3-0.2-0.5c0.1-0.4,0.6-0.7,0.9-0.9C80.3,37.1,80.8,36.9,81.3,36.9"/>
		<path class="st32" d="M93.6,42.8c0.1-0.5,0.2-0.9,0.3-1.4c7,0,14-1,20.7-2.8c-0.1,0.3,0,0.5-0.1,0.8
			C108.1,41.8,100.8,43.1,93.6,42.8"/>
		<path class="st33" d="M94.7,42.6c0.1-0.3,0.1-0.6,0.1-0.9c2.6,0.1,5.3-0.1,7.8-0.4c0.2,0.3,0.2,0.8,0.1,1.1
			C100.1,42.7,97.3,42.7,94.7,42.6"/>
		<path class="st28" d="M116.2,29.9c-0.1,0.5-0.5,0.9-0.9,1c-0.4,0.1-0.8,0-1.1-0.2c-0.6-0.4-1-1.1-0.9-1.9c0.1-0.7,0.7-1.4,1.5-1.4
			C116.1,27.2,116.5,28.8,116.2,29.9"/>
		<path class="st29" d="M114.5,27.7c-0.3,0-0.6,0.2-0.8,0.5c-0.2,0.3-0.2,0.6-0.2,0.9c0,0.4,0.1,0.7,0.4,1c0.2,0.3,0.6,0.4,1,0.4
			c0.4,0,0.7-0.3,0.8-0.7c-0.3,0.1-0.7,0-1-0.2c-0.3-0.2-0.4-0.5-0.4-0.8C114.3,28.4,114.3,28,114.5,27.7"/>
		<g class="st20">
			<g>
				<defs>
					<rect id="SVGID_48_" x="113.8" y="29.1" width="0.9" height="1.2"/>
				</defs>
				<clipPath id="SVGID_49_">
					<use xlink:href="#SVGID_48_"  style="overflow:visible;"/>
				</clipPath>
				<path class="st35" d="M114.7,30.3c-0.3-0.1-0.6-0.2-0.7-0.5c-0.1-0.1-0.3-0.9,0-0.6c0.1,0.1,0.2,0.5,0.3,0.6
					C114.4,29.9,114.5,30.1,114.7,30.3"/>
			</g>
		</g>
		<path class="st36" d="M115.1,27.6c0.4,0.1,0.7,0.4,0.9,0.8c0.2,0.4,0.1,0.8-0.1,1.2C115.5,29,115.2,28.2,115.1,27.6"/>
		<g class="st37">
			<g>
				<defs>
					<rect id="SVGID_50_" x="115.4" y="27.8" width="0.5" height="1.1"/>
				</defs>
				<clipPath id="SVGID_51_">
					<use xlink:href="#SVGID_50_"  style="overflow:visible;"/>
				</clipPath>
				<path class="st38" d="M115.4,27.8c0.3,0.3,0.5,0.7,0.4,1.1C115.6,28.7,115.4,28.2,115.4,27.8"/>
			</g>
		</g>
		<path class="st33" d="M110.7,29.9c-0.3,0.3-0.7,0.4-1.1,0.4c-0.5,0-1-0.2-1.3-0.6c-0.2-0.2-0.4-0.5-0.5-0.8
			c-0.1-0.3,0-0.7,0.2-0.9c0.5-0.6,1.7-0.4,2.3-0.1C110.9,28.2,111.1,29.4,110.7,29.9"/>
		<path class="st33" d="M105.2,29.6c-0.4,0.8-1.4,1.2-2.2,0.9c-0.5-0.2-0.9-0.6-1.2-1.1c-0.3-0.6-0.6-1.3-0.3-1.9
			c0.3-0.5,0.8-0.7,1.3-0.7C104.2,26.8,105.9,28,105.2,29.6"/>
		<path class="st33" d="M98.7,29.2c0.1,0.5-0.2,1.1-0.7,1.4c-0.5,0.2-1,0.1-1.5-0.1c-0.5-0.2-0.9-0.6-1-1.1c-0.1-0.5,0.3-1,0.7-1.2
			c0.4-0.2,1.1-0.4,1.6-0.2C98.4,28,98.7,28.7,98.7,29.2"/>
		<path class="st33" d="M86.9,32.1c0,0.3,0,0.6-0.2,0.9c-0.2,0.3-0.5,0.4-0.8,0.5c-0.6,0.1-1.2-0.1-1.5-0.6
			c-0.3-0.5-0.4-1.1-0.1-1.6c0.3-0.5,1-0.9,1.6-0.8C86.5,30.6,86.9,31.5,86.9,32.1"/>
		<path class="st33" d="M81.6,32.8c0.2,0.5,0.1,1.1-0.2,1.5c-0.2,0.2-0.5,0.3-0.8,0.3c-0.6,0-1.1-0.3-1.4-0.7
			c-0.3-0.5-0.3-1.1,0-1.6c0.3-0.4,0.9-0.8,1.4-0.8C81,31.6,81.4,32.4,81.6,32.8"/>
		<path class="st28" d="M104.7,29c-0.1,0.5-0.5,1-1,1.1c-0.4,0.1-0.9,0-1.3-0.2c-0.7-0.4-1.1-1.3-1-2.1c0.1-0.8,0.8-1.5,1.6-1.6
			C104.6,26,105,27.8,104.7,29"/>
		<path class="st29" d="M102.9,26.6c-0.3,0-0.7,0.2-0.9,0.5c-0.2,0.3-0.3,0.7-0.2,1c0,0.4,0.2,0.8,0.4,1.1c0.3,0.3,0.7,0.5,1.1,0.4
			c0.4,0,0.8-0.4,0.9-0.8c-0.3,0.1-0.8,0-1.1-0.3c-0.3-0.2-0.4-0.6-0.5-0.9C102.6,27.4,102.7,26.9,102.9,26.6"/>
		<g class="st20">
			<g>
				<defs>
					<rect id="SVGID_52_" x="102" y="28.1" width="1" height="1.3"/>
				</defs>
				<clipPath id="SVGID_53_">
					<use xlink:href="#SVGID_52_"  style="overflow:visible;"/>
				</clipPath>
				<path class="st39" d="M103,29.4c-0.3-0.1-0.6-0.3-0.8-0.6c-0.1-0.2-0.3-1,0-0.7c0.1,0.1,0.2,0.5,0.3,0.7
					C102.7,29,102.8,29.2,103,29.4"/>
			</g>
		</g>
		<path class="st36" d="M103.5,26.5c0.4,0.1,0.8,0.4,1,0.9c0.2,0.4,0.1,0.9-0.1,1.3C103.9,28,103.6,27.2,103.5,26.5"/>
		<g class="st37">
			<g>
				<defs>
					<rect id="SVGID_54_" x="103.9" y="26.8" width="0.5" height="1.3"/>
				</defs>
				<clipPath id="SVGID_55_">
					<use xlink:href="#SVGID_54_"  style="overflow:visible;"/>
				</clipPath>
				<path class="st40" d="M103.9,26.8c0.4,0.3,0.6,0.8,0.5,1.3C104.1,27.7,103.9,27.2,103.9,26.8"/>
			</g>
		</g>
		<path class="st33" d="M93.9,30.2c0.2,0.6,0,1.4-0.5,1.7c-0.3,0.2-0.8,0.3-1.2,0.2c-0.5-0.1-0.9-0.2-1.3-0.5
			c-0.4-0.3-0.6-0.8-0.6-1.2c0-0.6,0.4-1.1,0.8-1.4c0.4-0.2,1.2-0.5,1.6-0.3C93.2,29,93.7,29.7,93.9,30.2"/>
		<path class="st28" d="M93.2,30.5c0,0.5-0.3,1-0.8,1.3c-0.4,0.2-0.9,0.2-1.3,0c-0.8-0.3-1.3-1-1.4-1.9c0-0.8,0.5-1.6,1.3-1.9
			C92.6,27.6,93.3,29.2,93.2,30.5"/>
		<path class="st29" d="M91,28.5c-0.3,0.1-0.6,0.4-0.7,0.7c-0.1,0.3-0.1,0.7,0,1c0.1,0.4,0.3,0.8,0.6,1c0.3,0.3,0.8,0.4,1.2,0.2
			c0.4-0.1,0.7-0.5,0.7-0.9c-0.3,0.2-0.8,0.1-1.1-0.1c-0.3-0.2-0.5-0.5-0.6-0.8C90.9,29.3,90.9,28.8,91,28.5"/>
		<g class="st20">
			<g>
				<defs>
					<rect id="SVGID_56_" x="90.5" y="30.1" width="1.2" height="1.1"/>
				</defs>
				<clipPath id="SVGID_57_">
					<use xlink:href="#SVGID_56_"  style="overflow:visible;"/>
				</clipPath>
				<path class="st41" d="M91.7,31.2c-0.3,0-0.7-0.2-0.9-0.4c-0.1-0.1-0.5-0.9-0.1-0.7c0.1,0,0.3,0.5,0.4,0.6
					C91.3,30.9,91.5,31.1,91.7,31.2"/>
			</g>
		</g>
		<path class="st36" d="M91.6,28.2c0.5,0,0.9,0.3,1.1,0.7c0.2,0.4,0.3,0.9,0.1,1.3C92.3,29.7,91.9,28.9,91.6,28.2"/>
		<g class="st37">
			<g>
				<defs>
					<rect id="SVGID_58_" x="92" y="28.4" width="0.7" height="1.1"/>
				</defs>
				<clipPath id="SVGID_59_">
					<use xlink:href="#SVGID_58_"  style="overflow:visible;"/>
				</clipPath>
				<path class="st42" d="M92,28.4c0.4,0.2,0.7,0.7,0.7,1.1C92.4,29.3,92.1,28.8,92,28.4"/>
			</g>
		</g>
		<path class="st28" d="M81.4,33.2c0,0.4-0.3,0.8-0.6,1c-0.3,0.1-0.7,0.1-1,0c-0.6-0.2-1.1-0.8-1.1-1.5c0-0.6,0.4-1.3,1-1.5
			C80.8,31,81.4,32.3,81.4,33.2"/>
		<path class="st29" d="M79.6,31.7c-0.3,0.1-0.5,0.3-0.6,0.5c-0.1,0.3-0.1,0.5,0,0.8c0.1,0.3,0.2,0.6,0.5,0.8
			c0.3,0.2,0.6,0.3,0.9,0.2c0.3-0.1,0.6-0.4,0.6-0.7c-0.2,0.1-0.6,0.1-0.9,0c-0.2-0.1-0.4-0.4-0.5-0.7
			C79.5,32.3,79.5,31.9,79.6,31.7"/>
		<g class="st20">
			<g>
				<defs>
					<rect id="SVGID_60_" x="79.2" y="32.9" width="0.9" height="0.9"/>
				</defs>
				<clipPath id="SVGID_61_">
					<use xlink:href="#SVGID_60_"  style="overflow:visible;"/>
				</clipPath>
				<path class="st43" d="M80.1,33.8c-0.3,0-0.5-0.1-0.7-0.3c-0.1-0.1-0.4-0.7-0.1-0.6c0.1,0,0.3,0.4,0.3,0.5
					C79.8,33.5,80,33.7,80.1,33.8"/>
			</g>
		</g>
		<path class="st36" d="M80.1,31.4c0.4,0,0.7,0.2,0.9,0.5c0.2,0.3,0.2,0.7,0.1,1C80.6,32.6,80.3,32,80.1,31.4"/>
		<g class="st37">
			<g>
				<defs>
					<rect id="SVGID_62_" x="80.4" y="31.6" width="0.6" height="0.9"/>
				</defs>
				<clipPath id="SVGID_63_">
					<use xlink:href="#SVGID_62_"  style="overflow:visible;"/>
				</clipPath>
				<path class="st44" d="M80.4,31.6c0.3,0.2,0.6,0.5,0.5,0.9C80.7,32.3,80.5,31.9,80.4,31.6"/>
			</g>
		</g>
		<path class="st45" d="M86.4,32c0,0.4-0.3,0.8-0.6,1c-0.3,0.1-0.7,0.1-1,0c-0.6-0.2-1.1-0.8-1.1-1.5c0-0.6,0.4-1.3,1-1.5
			C85.9,29.7,86.5,31,86.4,32"/>
		<path class="st46" d="M84.7,30.5c-0.3,0.1-0.5,0.3-0.6,0.5c-0.1,0.3-0.1,0.5,0,0.8c0.1,0.3,0.2,0.6,0.5,0.8
			c0.3,0.2,0.6,0.3,0.9,0.2c0.3-0.1,0.6-0.4,0.6-0.7c-0.2,0.1-0.6,0.1-0.9,0c-0.2-0.1-0.4-0.4-0.5-0.7
			C84.6,31.1,84.6,30.7,84.7,30.5"/>
		<g class="st20">
			<g>
				<defs>
					<rect id="SVGID_64_" x="84.3" y="31.7" width="0.9" height="0.9"/>
				</defs>
				<clipPath id="SVGID_65_">
					<use xlink:href="#SVGID_64_"  style="overflow:visible;"/>
				</clipPath>
				<path class="st47" d="M85.2,32.6c-0.3,0-0.5-0.1-0.7-0.3c-0.1-0.1-0.4-0.7-0.1-0.6c0.1,0,0.3,0.4,0.3,0.5
					C84.9,32.3,85,32.5,85.2,32.6"/>
			</g>
		</g>
		<g class="st20">
			<g>
				<defs>
					<rect id="SVGID_66_" x="85.1" y="30.2" width="1.1" height="1.6"/>
				</defs>
				<clipPath id="SVGID_67_">
					<use xlink:href="#SVGID_66_"  style="overflow:visible;"/>
				</clipPath>
				<path class="st48" d="M85.1,30.2c0.4,0,0.7,0.2,0.9,0.5c0.2,0.3,0.2,0.7,0.1,1C85.7,31.4,85.3,30.8,85.1,30.2"/>
			</g>
		</g>
		<g class="st37">
			<g>
				<defs>
					<rect id="SVGID_68_" x="85.4" y="30.4" width="0.6" height="0.9"/>
				</defs>
				<clipPath id="SVGID_69_">
					<use xlink:href="#SVGID_68_"  style="overflow:visible;"/>
				</clipPath>
				<path class="st49" d="M85.4,30.4c0.3,0.2,0.6,0.5,0.5,0.9C85.7,31.1,85.5,30.7,85.4,30.4"/>
			</g>
		</g>
		<path class="st45" d="M98.3,29.2c0,0.4-0.3,0.8-0.6,1c-0.3,0.1-0.7,0.1-1,0c-0.6-0.2-1.1-0.8-1.1-1.5c0-0.6,0.4-1.3,1-1.5
			C97.8,26.9,98.4,28.2,98.3,29.2"/>
		<path class="st46" d="M96.5,27.6c-0.3,0.1-0.5,0.3-0.6,0.5c-0.1,0.3-0.1,0.5,0,0.8c0.1,0.3,0.2,0.6,0.5,0.8
			c0.3,0.2,0.6,0.3,0.9,0.2c0.3-0.1,0.6-0.4,0.6-0.7c-0.2,0.1-0.6,0.1-0.9,0c-0.2-0.1-0.4-0.4-0.5-0.7
			C96.4,28.3,96.4,27.9,96.5,27.6"/>
		<g class="st20">
			<g>
				<defs>
					<rect id="SVGID_70_" x="96.1" y="28.8" width="0.9" height="0.9"/>
				</defs>
				<clipPath id="SVGID_71_">
					<use xlink:href="#SVGID_70_"  style="overflow:visible;"/>
				</clipPath>
				<path class="st50" d="M97.1,29.7c-0.3,0-0.5-0.1-0.7-0.3c-0.1-0.1-0.4-0.7-0.1-0.6c0.1,0,0.3,0.4,0.3,0.5
					C96.7,29.5,96.9,29.6,97.1,29.7"/>
			</g>
		</g>
		<g class="st20">
			<g>
				<defs>
					<rect id="SVGID_72_" x="97" y="27.4" width="1.1" height="1.6"/>
				</defs>
				<clipPath id="SVGID_73_">
					<use xlink:href="#SVGID_72_"  style="overflow:visible;"/>
				</clipPath>
				<path class="st51" d="M97,27.4c0.4,0,0.7,0.2,0.9,0.5c0.2,0.3,0.2,0.7,0.1,1C97.5,28.5,97.2,27.9,97,27.4"/>
			</g>
		</g>
		<g class="st37">
			<g>
				<defs>
					<rect id="SVGID_74_" x="97.3" y="27.6" width="0.6" height="0.9"/>
				</defs>
				<clipPath id="SVGID_75_">
					<use xlink:href="#SVGID_74_"  style="overflow:visible;"/>
				</clipPath>
				<path class="st52" d="M97.3,27.6c0.3,0.2,0.6,0.5,0.5,0.9C97.6,28.3,97.4,27.9,97.3,27.6"/>
			</g>
		</g>
		<path class="st45" d="M110.6,28.9c0,0.4-0.3,0.8-0.6,1c-0.3,0.1-0.7,0.1-1,0c-0.6-0.2-1.1-0.8-1.1-1.5c0-0.6,0.4-1.3,1-1.5
			C110.1,26.6,110.7,27.9,110.6,28.9"/>
		<path class="st46" d="M108.8,27.3c-0.3,0.1-0.5,0.3-0.6,0.5c-0.1,0.3-0.1,0.5,0,0.8c0.1,0.3,0.2,0.6,0.5,0.8
			c0.3,0.2,0.6,0.3,0.9,0.2c0.3-0.1,0.6-0.4,0.6-0.7c-0.2,0.1-0.6,0.1-0.9,0c-0.2-0.1-0.4-0.4-0.5-0.7
			C108.7,28,108.7,27.6,108.8,27.3"/>
		<g class="st20">
			<g>
				<defs>
					<rect id="SVGID_76_" x="108.4" y="28.6" width="0.9" height="0.9"/>
				</defs>
				<clipPath id="SVGID_77_">
					<use xlink:href="#SVGID_76_"  style="overflow:visible;"/>
				</clipPath>
				<path class="st53" d="M109.4,29.5c-0.3,0-0.5-0.1-0.7-0.3c-0.1-0.1-0.4-0.7-0.1-0.6c0.1,0,0.3,0.4,0.3,0.5
					C109,29.2,109.2,29.3,109.4,29.5"/>
			</g>
		</g>
		<g class="st20">
			<g>
				<defs>
					<rect id="SVGID_78_" x="109.3" y="27.1" width="1.1" height="1.6"/>
				</defs>
				<clipPath id="SVGID_79_">
					<use xlink:href="#SVGID_78_"  style="overflow:visible;"/>
				</clipPath>
				<path class="st54" d="M109.3,27.1c0.4,0,0.7,0.2,0.9,0.5c0.2,0.3,0.2,0.7,0.1,1C109.8,28.3,109.5,27.7,109.3,27.1"/>
			</g>
		</g>
		<g class="st37">
			<g>
				<defs>
					<rect id="SVGID_80_" x="109.6" y="27.3" width="0.6" height="0.9"/>
				</defs>
				<clipPath id="SVGID_81_">
					<use xlink:href="#SVGID_80_"  style="overflow:visible;"/>
				</clipPath>
				<path class="st55" d="M109.6,27.3c0.3,0.2,0.6,0.5,0.5,0.9C109.9,28,109.7,27.6,109.6,27.3"/>
			</g>
		</g>
	</g>
	<g class="st0">
		<defs>
			<polygon id="SVGID_82_" points="145.8,114.1 178.2,119.7 175.5,95.3 193.6,71.8 162.4,65.4 			"/>
		</defs>
		<clipPath id="SVGID_83_">
			<use xlink:href="#SVGID_82_"  style="overflow:visible;"/>
		</clipPath>
		
			<radialGradient id="SVGID_84_" cx="0" cy="139.92" r="1" gradientTransform="matrix(-33.5482 -50.2895 -50.2895 33.5482 7230.5996 -4555.373)" gradientUnits="userSpaceOnUse">
			<stop  offset="0" style="stop-color:#FAF1D5"/>
			<stop  offset="2.619452e-02" style="stop-color:#FBECB7"/>
			<stop  offset="7.441470e-02" style="stop-color:#FCE387"/>
			<stop  offset="0.124" style="stop-color:#FDDC5E"/>
			<stop  offset="0.1742" style="stop-color:#FED63C"/>
			<stop  offset="0.2253" style="stop-color:#FED222"/>
			<stop  offset="0.2774" style="stop-color:#FFCF0F"/>
			<stop  offset="0.3314" style="stop-color:#FFCD04"/>
			<stop  offset="0.39" style="stop-color:#FFCC00"/>
			<stop  offset="0.6341" style="stop-color:#F8B108"/>
			<stop  offset="1" style="stop-color:#EB8117"/>
		</radialGradient>
		<polygon class="st56" points="160.5,141.8 120.7,82.1 178.9,43.3 218.7,103 		"/>
	</g>
	<g class="st0">
		<defs>
			<rect id="SVGID_85_" width="194.8" height="139.9"/>
		</defs>
		<clipPath id="SVGID_86_">
			<use xlink:href="#SVGID_85_"  style="overflow:visible;"/>
		</clipPath>
		<path class="st57" d="M178.2,119.7c-2.7-0.4-5.4-0.8-8.1-1.2c-2.7-0.4-5.4-0.8-8.1-1.2c-5.4-0.8-10.8-1.7-16.2-2.6l-0.8-0.1
			l0.3-0.7l4.2-12.2c1.4-4.1,2.8-8.1,4.2-12.1l4.4-12.1c1.5-4,3-8,4.5-12c-1.2,4.1-2.5,8.2-3.8,12.3l-4,12.2
			c-1.3,4.1-2.7,8.1-4.1,12.2l-4.2,12.1l-0.5-0.9c5.4,1,10.8,2,16.2,3c2.7,0.5,5.4,1,8.1,1.6C172.8,118.6,175.5,119.1,178.2,119.7"
			/>
		<path class="st58" d="M162.4,65.4c2.6,0.4,5.2,0.9,7.8,1.3c2.6,0.4,5.2,0.9,7.8,1.4c5.2,1,10.4,1.9,15.6,3l1,0.2l-0.6,0.8
			l-4.5,5.9l-4.5,5.9c-3,3.9-6.1,7.8-9.1,11.7l0.1-0.4l1.1,12.2c0.2,2,0.3,4.1,0.5,6.1c0.2,2,0.3,4.1,0.5,6.1c-0.3-2-0.6-4-0.9-6.1
			c-0.3-2-0.6-4-0.8-6.1l-1.6-12.2l0-0.2L175,95c3-4,6-7.9,9-11.8l4.5-5.9l4.6-5.9l0.4,1c-5.2-1.1-10.4-2.2-15.6-3.4
			c-2.6-0.6-5.2-1.1-7.8-1.8C167.6,66.7,165,66.1,162.4,65.4"/>
	</g>
	<g class="st0">
		<defs>
			<polygon id="SVGID_87_" points="28.4,54.9 35.7,103 159.5,103 167.9,49.9 			"/>
		</defs>
		<clipPath id="SVGID_88_">
			<use xlink:href="#SVGID_87_"  style="overflow:visible;"/>
		</clipPath>
		
			<radialGradient id="SVGID_89_" cx="0" cy="139.92" r="1" gradientTransform="matrix(133.523 53.0435 53.0435 -133.523 -7400.6167 18723.0684)" gradientUnits="userSpaceOnUse">
			<stop  offset="0" style="stop-color:#FAF1D5"/>
			<stop  offset="2.619452e-02" style="stop-color:#FBECB7"/>
			<stop  offset="7.441470e-02" style="stop-color:#FCE387"/>
			<stop  offset="0.124" style="stop-color:#FDDC5E"/>
			<stop  offset="0.1742" style="stop-color:#FED63C"/>
			<stop  offset="0.2253" style="stop-color:#FED222"/>
			<stop  offset="0.2774" style="stop-color:#FFCF0F"/>
			<stop  offset="0.3314" style="stop-color:#FFCD04"/>
			<stop  offset="0.39" style="stop-color:#FFCC00"/>
			<stop  offset="0.6341" style="stop-color:#F8B108"/>
			<stop  offset="1" style="stop-color:#EB8117"/>
		</radialGradient>
		<polygon class="st59" points="47.4,2.1 186.1,57.2 148.8,150.9 10.1,95.8 		"/>
	</g>
	<g class="st0">
		<defs>
			<rect id="SVGID_90_" width="194.8" height="139.9"/>
		</defs>
		<clipPath id="SVGID_91_">
			<use xlink:href="#SVGID_90_"  style="overflow:visible;"/>
		</clipPath>
		<polygon class="st60" points="35.7,103 52.6,113.5 48.7,103 		"/>
		<polygon class="st60" points="148.8,103 159.5,103 144.9,114.6 		"/>
		<g class="st61">
			<g>
				<defs>
					<rect id="SVGID_92_" x="55.4" y="103" width="83.9" height="8.3"/>
				</defs>
				<clipPath id="SVGID_93_">
					<use xlink:href="#SVGID_92_"  style="overflow:visible;"/>
				</clipPath>
				<polygon class="st62" points="55.4,103 56.4,107.2 136.7,111.3 139.3,103 				"/>
			</g>
		</g>
		<g class="st61">
			<g>
				<defs>
					<rect id="SVGID_94_" x="35.7" y="103" width="14.4" height="5.5"/>
				</defs>
				<clipPath id="SVGID_95_">
					<use xlink:href="#SVGID_94_"  style="overflow:visible;"/>
				</clipPath>
				<polygon class="st63" points="35.7,103 48,103 50.1,108.5 				"/>
			</g>
		</g>
		<g class="st61">
			<g>
				<defs>
					<rect id="SVGID_96_" x="147" y="103" width="12.5" height="5.3"/>
				</defs>
				<clipPath id="SVGID_97_">
					<use xlink:href="#SVGID_96_"  style="overflow:visible;"/>
				</clipPath>
				<polygon class="st64" points="148.8,103 159.5,103 147,108.4 				"/>
			</g>
		</g>
		<g class="st65">
			<g>
				<defs>
					<rect id="SVGID_98_" x="22.1" y="66.1" width="29.7" height="46.8"/>
				</defs>
				<clipPath id="SVGID_99_">
					<use xlink:href="#SVGID_98_"  style="overflow:visible;"/>
				</clipPath>
				<polygon class="st66" points="30.1,66.1 35.7,103 51.8,113 33.4,107.2 22.1,67.7 				"/>
			</g>
		</g>
		<g class="st65">
			<g>
				<defs>
					<rect id="SVGID_100_" x="145.8" y="66" width="27.6" height="48"/>
				</defs>
				<clipPath id="SVGID_101_">
					<use xlink:href="#SVGID_100_"  style="overflow:visible;"/>
				</clipPath>
				<polygon class="st67" points="145.8,114 159.5,103 165.3,66 173.3,67.6 164.4,105.1 				"/>
			</g>
		</g>
		<path class="st68" d="M167.9,49.9L166,63.2l-1.9,13.3l-4,26.6l-0.1,0.5l-0.5,0l-31,0.1l-31-0.1c-10.3,0-20.6-0.1-31-0.2
			c-5.2,0-10.3-0.1-15.5-0.2L35.7,103l15.5-0.2c5.2-0.1,10.3-0.1,15.5-0.2c10.3-0.1,20.6-0.2,31-0.2l31-0.1l31,0.1l-0.6,0.5
			l4.4-26.5l2.3-13.2L167.9,49.9z"/>
		<path class="st69" d="M35.7,103c-1.4-8-2.7-16-4-24l-3.8-24l-0.1-0.6l0.6,0L63.2,53c11.6-0.5,23.2-0.8,34.9-1.2l17.4-0.6l17.4-0.5
			c11.6-0.3,23.3-0.6,34.9-0.8c-11.6,0.6-23.2,1.2-34.9,1.7l-17.4,0.8L98.1,53c-11.6,0.4-23.2,0.9-34.9,1.3l-34.9,1.1l0.5-0.6
			l3.5,24.1C33.5,87,34.6,95,35.7,103"/>
		<g class="st70">
			<g>
				<defs>
					<rect id="SVGID_102_" x="6.7" y="69.6" width="19.8" height="20.9"/>
				</defs>
				<clipPath id="SVGID_103_">
					<use xlink:href="#SVGID_102_"  style="overflow:visible;"/>
				</clipPath>
				<polygon class="st71" points="22.2,90.6 6.7,73.6 26.5,69.6 15.5,75.6 				"/>
			</g>
		</g>
		<g class="st70">
			<g>
				<defs>
					<rect id="SVGID_104_" x="19.9" y="97.5" width="8.5" height="19.7"/>
				</defs>
				<clipPath id="SVGID_105_">
					<use xlink:href="#SVGID_104_"  style="overflow:visible;"/>
				</clipPath>
				<polygon class="st72" points="23.4,97.5 19.9,117.3 28.4,115.5 24.7,114.6 				"/>
			</g>
		</g>
		<g class="st70">
			<g>
				<defs>
					<rect id="SVGID_106_" x="169.7" y="69.6" width="17.1" height="20.9"/>
				</defs>
				<clipPath id="SVGID_107_">
					<use xlink:href="#SVGID_106_"  style="overflow:visible;"/>
				</clipPath>
				<polygon class="st73" points="169.7,69.6 186.8,73.5 174.4,90.6 179.3,75.8 				"/>
			</g>
		</g>
		<g class="st70">
			<g>
				<defs>
					<rect id="SVGID_108_" x="163.1" y="101.7" width="11.4" height="13.8"/>
				</defs>
				<clipPath id="SVGID_109_">
					<use xlink:href="#SVGID_108_"  style="overflow:visible;"/>
				</clipPath>
				<polygon class="st74" points="173.3,101.7 174.6,115.5 163.1,113.5 170.8,111.3 				"/>
			</g>
		</g>
		<g class="st70">
			<g>
				<defs>
					<rect id="SVGID_110_" x="32.2" y="53.9" width="130.9" height="46.3"/>
				</defs>
				<clipPath id="SVGID_111_">
					<use xlink:href="#SVGID_110_"  style="overflow:visible;"/>
				</clipPath>
				<polygon class="st75" points="38.7,100.3 32.2,57.9 163.1,53.9 162.4,61.9 160.5,56.7 39.8,62.9 41,98.2 52.6,100.3 				"/>
			</g>
		</g>
		<g class="st61">
			<g>
				<defs>
					<rect id="SVGID_112_" x="117" y="118.5" width="36.4" height="14"/>
				</defs>
				<clipPath id="SVGID_113_">
					<use xlink:href="#SVGID_112_"  style="overflow:visible;"/>
				</clipPath>
				<polygon class="st76" points="117,118.5 153.5,124.6 149.6,132.4 				"/>
			</g>
		</g>
	</g>
	<g class="st0">
		<defs>
			<polygon id="SVGID_114_" points="148.8,127.1 152.1,119 115.3,115.5 			"/>
		</defs>
		<clipPath id="SVGID_115_">
			<use xlink:href="#SVGID_114_"  style="overflow:visible;"/>
		</clipPath>
		
			<radialGradient id="SVGID_116_" cx="0" cy="139.92" r="1" gradientTransform="matrix(32.4608 4.9854 4.9854 -32.4608 -584.6386 4656.8374)" gradientUnits="userSpaceOnUse">
			<stop  offset="0" style="stop-color:#FAF1D5"/>
			<stop  offset="2.619452e-02" style="stop-color:#FBECB7"/>
			<stop  offset="7.441470e-02" style="stop-color:#FCE387"/>
			<stop  offset="0.124" style="stop-color:#FDDC5E"/>
			<stop  offset="0.1742" style="stop-color:#FED63C"/>
			<stop  offset="0.2253" style="stop-color:#FED222"/>
			<stop  offset="0.2774" style="stop-color:#FFCF0F"/>
			<stop  offset="0.3314" style="stop-color:#FFCD04"/>
			<stop  offset="0.39" style="stop-color:#FFCC00"/>
			<stop  offset="0.6341" style="stop-color:#F8B108"/>
			<stop  offset="1" style="stop-color:#EB8117"/>
		</radialGradient>
		<polygon class="st77" points="116.2,110 153.8,115.8 151.3,132.6 113.6,126.8 		"/>
	</g>
	<g class="st0">
		<defs>
			<rect id="SVGID_117_" width="194.8" height="139.9"/>
		</defs>
		<clipPath id="SVGID_118_">
			<use xlink:href="#SVGID_117_"  style="overflow:visible;"/>
		</clipPath>
		<path class="st78" d="M152.1,119c-0.4,1.4-0.9,2.8-1.4,4.1c-0.5,1.4-1,2.7-1.5,4.1l-0.1,0.4l-0.4-0.1c-2.8-0.9-5.6-1.8-8.4-2.7
			c-2.8-0.9-5.6-1.9-8.4-2.9c-5.6-2-11.1-4.1-16.5-6.4c5.7,1.5,11.3,3.3,16.9,5.2c2.8,0.9,5.6,1.9,8.4,2.9c2.8,1,5.5,2,8.3,3.1
			l-0.6,0.3c0.6-1.3,1.2-2.6,1.8-4C150.8,121.6,151.4,120.3,152.1,119"/>
		<path class="st79" d="M115.3,115.5c6.2,0.1,12.3,0.5,18.5,1.1c6.1,0.6,12.2,1.3,18.3,2.4c-6.2,0-12.3-0.5-18.5-1.1
			C127.5,117.4,121.4,116.7,115.3,115.5"/>
		<g class="st80">
			<g>
				<defs>
					<rect id="SVGID_119_" x="44.2" y="115.9" width="31.5" height="12.2"/>
				</defs>
				<clipPath id="SVGID_120_">
					<use xlink:href="#SVGID_119_"  style="overflow:visible;"/>
				</clipPath>
				<polygon class="st81" points="75.7,115.9 44.2,120.8 47.6,128 				"/>
			</g>
		</g>
	</g>
	<g class="st0">
		<defs>
			<polygon id="SVGID_121_" points="45,116.9 47.9,124.4 76.7,114 			"/>
		</defs>
		<clipPath id="SVGID_122_">
			<use xlink:href="#SVGID_121_"  style="overflow:visible;"/>
		</clipPath>
		
			<radialGradient id="SVGID_123_" cx="0" cy="139.92" r="1" gradientTransform="matrix(-27.9805 4.2973 -4.6172 -30.0753 724.8077 4321.6035)" gradientUnits="userSpaceOnUse">
			<stop  offset="0" style="stop-color:#FAF1D5"/>
			<stop  offset="2.619452e-02" style="stop-color:#FBECB7"/>
			<stop  offset="7.441470e-02" style="stop-color:#FCE387"/>
			<stop  offset="0.124" style="stop-color:#FDDC5E"/>
			<stop  offset="0.1742" style="stop-color:#FED63C"/>
			<stop  offset="0.2253" style="stop-color:#FED222"/>
			<stop  offset="0.2774" style="stop-color:#FFCF0F"/>
			<stop  offset="0.3314" style="stop-color:#FFCD04"/>
			<stop  offset="0.39" style="stop-color:#FFCC00"/>
			<stop  offset="0.6341" style="stop-color:#F8B108"/>
			<stop  offset="1" style="stop-color:#EB8117"/>
		</radialGradient>
		<polygon class="st82" points="76,109.3 43.4,114.3 45.7,129.1 78.2,124.1 		"/>
	</g>
	<g class="st0">
		<defs>
			<rect id="SVGID_124_" width="194.8" height="139.9"/>
		</defs>
		<clipPath id="SVGID_125_">
			<use xlink:href="#SVGID_124_"  style="overflow:visible;"/>
		</clipPath>
		<path class="st83" d="M45,116.9c0.4,1.3,0.8,2.6,1.3,3.8c0.4,1.3,0.9,2.5,1.3,3.8l0.1,0.4l0.4-0.1c2.4-0.8,4.8-1.6,7.3-2.4
			c2.4-0.8,4.8-1.7,7.2-2.6c4.8-1.8,9.5-3.6,14.2-5.7c-4.9,1.4-9.8,2.9-14.6,4.6c-2.4,0.8-4.8,1.7-7.2,2.6c-2.4,0.9-4.8,1.8-7.1,2.8
			l0.5,0.2c-0.5-1.2-1.1-2.5-1.6-3.7C46.1,119.3,45.6,118.1,45,116.9"/>
		<path class="st84" d="M76.7,114c-5.3,0-10.6,0.4-15.9,0.8c-5.3,0.5-10.6,1.1-15.8,2c5.3,0,10.6-0.3,15.9-0.8
			C66.2,115.6,71.5,115,76.7,114"/>
		<g class="st85">
			<g>
				<defs>
					<rect id="SVGID_126_" x="137.8" y="38" width="43.2" height="11.2"/>
				</defs>
				<clipPath id="SVGID_127_">
					<use xlink:href="#SVGID_126_"  style="overflow:visible;"/>
				</clipPath>
				<polygon class="st86" points="137.8,48.4 181,38 180.4,49.2 				"/>
			</g>
		</g>
	</g>
	<g class="st0">
		<defs>
			<polygon id="SVGID_128_" points="135.8,46.3 177.7,44.6 177.6,33.5 			"/>
		</defs>
		<clipPath id="SVGID_129_">
			<use xlink:href="#SVGID_128_"  style="overflow:visible;"/>
		</clipPath>
		
			<radialGradient id="SVGID_130_" cx="0" cy="139.92" r="1" gradientTransform="matrix(37.7772 -9.051 -9.7308 -40.6051 1494.4178 5728.1812)" gradientUnits="userSpaceOnUse">
			<stop  offset="0" style="stop-color:#FAF1D5"/>
			<stop  offset="2.619452e-02" style="stop-color:#FBECB7"/>
			<stop  offset="7.441470e-02" style="stop-color:#FCE387"/>
			<stop  offset="0.124" style="stop-color:#FDDC5E"/>
			<stop  offset="0.1742" style="stop-color:#FED63C"/>
			<stop  offset="0.2253" style="stop-color:#FED222"/>
			<stop  offset="0.2774" style="stop-color:#FFCF0F"/>
			<stop  offset="0.3314" style="stop-color:#FFCD04"/>
			<stop  offset="0.39" style="stop-color:#FFCC00"/>
			<stop  offset="0.6341" style="stop-color:#F8B108"/>
			<stop  offset="1" style="stop-color:#EB8117"/>
		</radialGradient>
		<polygon class="st87" points="132.9,34.2 175.5,24 180.7,45.7 138.1,55.9 		"/>
	</g>
	<g class="st0">
		<defs>
			<rect id="SVGID_131_" width="194.8" height="139.9"/>
		</defs>
		<clipPath id="SVGID_132_">
			<use xlink:href="#SVGID_131_"  style="overflow:visible;"/>
		</clipPath>
		<path class="st88" d="M177.6,33.5c0.2,1.8,0.3,3.7,0.4,5.5c0.1,1.8,0.2,3.7,0.3,5.5l0,0.5l-0.5,0c-3.5,0.3-7,0.5-10.5,0.7
			c-3.5,0.2-7,0.3-10.5,0.5c-7,0.2-14,0.3-21,0.1c7-0.8,13.9-1.3,20.9-1.7c3.5-0.2,7-0.3,10.5-0.4c3.5-0.1,7-0.2,10.5-0.2l-0.5,0.6
			c0-1.8,0.1-3.7,0.2-5.5C177.4,37.2,177.5,35.4,177.6,33.5"/>
		<path class="st89" d="M135.8,46.3c6.8-2.8,13.7-5.1,20.6-7.2c7-2.1,14-4.1,21.1-5.6c-6.8,2.8-13.7,5.1-20.6,7.2
			C150,42.9,143,44.9,135.8,46.3"/>
		<g class="st90">
			<g>
				<defs>
					<rect id="SVGID_133_" x="20.5" y="44.1" width="40.8" height="10.4"/>
				</defs>
				<clipPath id="SVGID_134_">
					<use xlink:href="#SVGID_133_"  style="overflow:visible;"/>
				</clipPath>
				<polygon class="st91" points="61.4,51.3 20.5,44.1 21.7,54.5 				"/>
			</g>
		</g>
	</g>
	<g class="st0">
		<defs>
			<polygon id="SVGID_135_" points="22.6,50.5 62.4,50.2 22.2,40 			"/>
		</defs>
		<clipPath id="SVGID_136_">
			<use xlink:href="#SVGID_135_"  style="overflow:visible;"/>
		</clipPath>
		
			<radialGradient id="SVGID_137_" cx="0" cy="139.92" r="1" gradientTransform="matrix(-36.2078 -6.8392 7.3514 -38.9199 -963.4241 5496.1226)" gradientUnits="userSpaceOnUse">
			<stop  offset="0" style="stop-color:#FAF1D5"/>
			<stop  offset="2.619452e-02" style="stop-color:#FBECB7"/>
			<stop  offset="7.441470e-02" style="stop-color:#FCE387"/>
			<stop  offset="0.124" style="stop-color:#FDDC5E"/>
			<stop  offset="0.1742" style="stop-color:#FED63C"/>
			<stop  offset="0.2253" style="stop-color:#FED222"/>
			<stop  offset="0.2774" style="stop-color:#FFCF0F"/>
			<stop  offset="0.3314" style="stop-color:#FFCD04"/>
			<stop  offset="0.39" style="stop-color:#FFCC00"/>
			<stop  offset="0.6341" style="stop-color:#F8B108"/>
			<stop  offset="1" style="stop-color:#EB8117"/>
		</radialGradient>
		<polygon class="st92" points="64.3,40.4 23.6,32.7 20.3,50.1 61,57.8 		"/>
	</g>
	<g class="st0">
		<defs>
			<rect id="SVGID_138_" width="194.8" height="139.9"/>
		</defs>
		<clipPath id="SVGID_139_">
			<use xlink:href="#SVGID_138_"  style="overflow:visible;"/>
		</clipPath>
		<path class="st93" d="M22.2,40c-0.1,1.8-0.1,3.5-0.1,5.3c0,1.8,0,3.5,0,5.2l0,0.5l0.5,0c3.3,0.1,6.6,0.1,9.9,0.2
			c3.3,0,6.6,0,10-0.1c6.6-0.1,13.3-0.3,19.9-0.9c-6.6-0.5-13.3-0.6-19.9-0.7c-3.3,0-6.6,0-10,0.1c-3.3,0.1-6.6,0.2-10,0.3l0.5,0.5
			c-0.1-1.7-0.2-3.5-0.4-5.2C22.5,43.5,22.4,41.7,22.2,40"/>
		<path class="st94" d="M62.4,50.2c-6.5-2.3-13.2-4.2-19.9-5.9c-6.7-1.7-13.4-3.2-20.3-4.3c6.5,2.3,13.2,4.2,19.9,5.9
			C48.8,47.6,55.5,49.2,62.4,50.2"/>
		<g class="st95">
			<g>
				<defs>
					<rect id="SVGID_140_" x="116.4" y="122.2" width="21.8" height="12.5"/>
				</defs>
				<clipPath id="SVGID_141_">
					<use xlink:href="#SVGID_140_"  style="overflow:visible;"/>
				</clipPath>
				<polygon class="st96" points="116.4,122.2 138.2,130 134.8,134.8 				"/>
			</g>
		</g>
	</g>
	<g class="st0">
		<defs>
			<polygon id="SVGID_142_" points="135.6,131.5 138.6,126.4 116.1,120.8 			"/>
		</defs>
		<clipPath id="SVGID_143_">
			<use xlink:href="#SVGID_142_"  style="overflow:visible;"/>
		</clipPath>
		
			<radialGradient id="SVGID_144_" cx="0" cy="139.92" r="1" gradientTransform="matrix(19.6348 6.2496 6.7173 -21.104 -825.2453 3073.0095)" gradientUnits="userSpaceOnUse">
			<stop  offset="0" style="stop-color:#FAF1D5"/>
			<stop  offset="2.619452e-02" style="stop-color:#FBECB7"/>
			<stop  offset="7.441470e-02" style="stop-color:#FCE387"/>
			<stop  offset="0.124" style="stop-color:#FDDC5E"/>
			<stop  offset="0.1742" style="stop-color:#FED63C"/>
			<stop  offset="0.2253" style="stop-color:#FED222"/>
			<stop  offset="0.2774" style="stop-color:#FFCF0F"/>
			<stop  offset="0.3314" style="stop-color:#FFCD04"/>
			<stop  offset="0.39" style="stop-color:#FFCC00"/>
			<stop  offset="0.6341" style="stop-color:#F8B108"/>
			<stop  offset="1" style="stop-color:#EB8117"/>
		</radialGradient>
		<polygon class="st97" points="118.1,114.3 141.7,121.8 136.5,138 113,130.5 		"/>
	</g>
	<g class="st0">
		<defs>
			<rect id="SVGID_145_" width="194.8" height="139.9"/>
		</defs>
		<clipPath id="SVGID_146_">
			<use xlink:href="#SVGID_145_"  style="overflow:visible;"/>
		</clipPath>
		<path class="st98" d="M138.6,126.4c-0.4,0.9-0.9,1.7-1.3,2.6c-0.4,0.9-0.9,1.7-1.4,2.6l-0.1,0.2l-0.3-0.1
			c-1.7-0.8-3.3-1.7-4.9-2.6c-1.6-0.9-3.3-1.8-4.9-2.7c-3.2-1.8-6.4-3.7-9.6-5.7c3.4,1.5,6.7,3.2,10,5c1.6,0.9,3.3,1.8,4.9,2.7
			c1.6,0.9,3.2,1.8,4.8,2.8l-0.4,0.1c0.5-0.8,1-1.6,1.6-2.5C137.5,128,138,127.2,138.6,126.4"/>
		<path class="st99" d="M116.1,120.8c3.8,0.6,7.6,1.5,11.4,2.4c3.7,0.9,7.5,2,11.1,3.3c-3.8-0.6-7.6-1.5-11.4-2.4
			C123.5,123.1,119.7,122.1,116.1,120.8"/>
		<g class="st100">
			<g>
				<defs>
					<rect id="SVGID_147_" x="35.9" y="55.5" width="127.3" height="45.1"/>
				</defs>
				<clipPath id="SVGID_148_">
					<use xlink:href="#SVGID_147_"  style="overflow:visible;"/>
				</clipPath>
				<path class="st101" d="M37.7,64.1c-0.5,0-1-0.2-1.3-0.5c-0.1-0.1-0.2-0.2-0.2-0.3C36.1,63.2,36,63.1,36,63
					c0-0.1-0.1-0.2-0.1-0.3c0-0.1,0-0.2,0-0.4c0-0.1,0-0.2,0-0.4c0-0.1,0.1-0.2,0.1-0.3c0-0.1,0.1-0.2,0.2-0.3
					c0.1-0.1,0.1-0.2,0.2-0.3c0.1-0.1,0.2-0.2,0.3-0.2c0.1-0.1,0.2-0.1,0.3-0.2c0.1,0,0.2-0.1,0.3-0.1c0.2,0,0.5,0,0.7,0
					c0.1,0,0.2,0.1,0.3,0.1c0.1,0,0.2,0.1,0.3,0.2c0.1,0.1,0.2,0.1,0.3,0.2c0.1,0.1,0.2,0.2,0.2,0.3c0.1,0.1,0.1,0.2,0.2,0.3
					c0,0.1,0.1,0.2,0.1,0.3c0,0.1,0,0.2,0,0.4c0,0.1,0,0.2,0,0.4c0,0.1-0.1,0.2-0.1,0.3c0,0.1-0.1,0.2-0.2,0.3
					c-0.1,0.1-0.1,0.2-0.2,0.3c-0.1,0.1-0.2,0.2-0.3,0.2c-0.1,0.1-0.2,0.1-0.3,0.2c-0.1,0-0.2,0.1-0.3,0.1
					C37.9,64.1,37.8,64.1,37.7,64.1 M40.7,91.5L40.7,91.5c0.1,0,0.1,0,0.2,0c1-0.1,1.7-1,1.6-2c-0.1-1-1-1.7-2-1.6
					c-1,0.1-1.7,1-1.6,2C39,90.8,39.8,91.5,40.7,91.5 M39.7,82.4L39.7,82.4c0.1,0,0.1,0,0.2,0c1-0.1,1.7-1,1.6-2c-0.1-1-1-1.7-2-1.6
					c-1,0.1-1.7,1-1.6,2C38,81.7,38.8,82.4,39.7,82.4 M38.7,73.3L38.7,73.3c0.1,0,0.1,0,0.2,0c1-0.1,1.7-1,1.6-2c-0.1-1-1-1.7-2-1.6
					c-1,0.1-1.7,1-1.6,2C37,72.6,37.8,73.3,38.7,73.3 M42.1,100.6c0.1,0,0.2-0.1,0.3-0.1c0.1,0,0.2-0.1,0.3-0.2
					c0.1-0.1,0.2-0.1,0.3-0.2c0.1-0.1,0.2-0.2,0.2-0.3c0.1-0.1,0.1-0.2,0.2-0.3c0-0.1,0.1-0.2,0.1-0.3c0-0.1,0-0.2,0-0.4
					s0-0.2,0-0.4c0-0.1-0.1-0.2-0.1-0.3c0-0.1-0.1-0.2-0.2-0.3c-0.1-0.1-0.1-0.2-0.2-0.3c-0.1-0.1-0.2-0.2-0.3-0.2
					c-0.1-0.1-0.2-0.1-0.3-0.2c-0.1,0-0.2-0.1-0.3-0.1c-0.2-0.1-0.5-0.1-0.7,0c-0.1,0-0.2,0.1-0.3,0.1c-0.1,0-0.2,0.1-0.3,0.2
					c-0.1,0.1-0.2,0.1-0.3,0.2c-0.1,0.1-0.2,0.2-0.2,0.3c-0.1,0.1-0.1,0.2-0.2,0.3c0,0.1-0.1,0.2-0.1,0.3c0,0.1,0,0.2,0,0.4
					s0,0.2,0,0.4c0,0.1,0.1,0.2,0.1,0.3c0,0.1,0.1,0.2,0.2,0.3c0.1,0.1,0.1,0.2,0.2,0.3c0.1,0.1,0.2,0.2,0.3,0.2
					c0.1,0.1,0.2,0.1,0.3,0.2c0.1,0,0.2,0.1,0.3,0.1c0.1,0,0.2,0,0.4,0C41.8,100.6,41.9,100.6,42.1,100.6 M49.7,100.6L49.7,100.6
					L49.7,100.6c1,0,1.8-0.8,1.8-1.8c0-1-0.8-1.8-1.8-1.8c-1,0-1.8,0.8-1.8,1.8C47.9,99.8,48.7,100.6,49.7,100.6 M57.8,100.5
					L57.8,100.5c1,0,1.8-0.8,1.8-1.8c0-1-0.8-1.8-1.8-1.8c-1,0-1.8,0.8-1.8,1.8C55.9,99.7,56.7,100.5,57.8,100.5 M65.8,100.5
					L65.8,100.5L65.8,100.5c1,0,1.8-0.8,1.8-1.8c0-1-0.8-1.8-1.8-1.8c-1,0-1.8,0.8-1.8,1.8C64,99.7,64.8,100.5,65.8,100.5
					 M73.8,100.5L73.8,100.5L73.8,100.5c1,0,1.8-0.8,1.8-1.8c0-1-0.8-1.8-1.8-1.8c-1,0-1.8,0.8-1.8,1.8
					C72,99.7,72.8,100.5,73.8,100.5 M81.8,100.4L81.8,100.4L81.8,100.4c1,0,1.8-0.8,1.8-1.8c0-1-0.8-1.8-1.8-1.8
					c-1,0-1.8,0.8-1.8,1.8C80,99.6,80.8,100.4,81.8,100.4 M89.8,100.4L89.8,100.4L89.8,100.4c1,0,1.8-0.8,1.8-1.8
					c0-1-0.8-1.8-1.8-1.8c-1,0-1.8,0.8-1.8,1.8C88,99.6,88.8,100.4,89.8,100.4 M97.9,100.3L97.9,100.3L97.9,100.3
					c1,0,1.8-0.8,1.8-1.8c0-1-0.8-1.8-1.8-1.8c-1,0-1.8,0.8-1.8,1.8C96,99.5,96.9,100.3,97.9,100.3 M105.9,100.3L105.9,100.3
					L105.9,100.3c1,0,1.8-0.8,1.8-1.8c0-1-0.8-1.8-1.8-1.8c-1,0-1.8,0.8-1.8,1.8C104.1,99.5,104.9,100.3,105.9,100.3 M113.9,100.2
					L113.9,100.2L113.9,100.2c1,0,1.8-0.8,1.8-1.8c0-1-0.8-1.8-1.8-1.8c-1,0-1.8,0.8-1.8,1.8C112.1,99.4,112.9,100.2,113.9,100.2
					 M121.9,100.2L121.9,100.2L121.9,100.2c1,0,1.8-0.8,1.8-1.8c0-1-0.8-1.8-1.8-1.8c-1,0-1.8,0.8-1.8,1.8
					C120.1,99.4,120.9,100.2,121.9,100.2 M129.9,100.2L129.9,100.2L129.9,100.2c1,0,1.8-0.8,1.8-1.8c0-1-0.8-1.8-1.8-1.8
					c-1,0-1.8,0.8-1.8,1.8C128.1,99.3,128.9,100.2,129.9,100.2 M138,100.1L138,100.1L138,100.1c1,0,1.8-0.8,1.8-1.8
					c0-1-0.8-1.8-1.8-1.8c-1,0-1.8,0.8-1.8,1.8C136.1,99.3,137,100.1,138,100.1 M146,100.1L146,100.1L146,100.1c1,0,1.8-0.8,1.8-1.8
					c0-1-0.8-1.8-1.8-1.8c-1,0-1.8,0.8-1.8,1.8C144.2,99.3,145,100.1,146,100.1 M155.3,99.5c0.3-0.3,0.5-0.8,0.5-1.3s-0.2-1-0.5-1.3
					c-0.1-0.1-0.2-0.2-0.3-0.2c-0.1-0.1-0.2-0.1-0.3-0.2c-0.1,0-0.2-0.1-0.3-0.1c-0.6-0.1-1.2,0.1-1.7,0.5c-0.3,0.3-0.5,0.8-0.5,1.3
					s0.2,1,0.5,1.3c0.1,0.1,0.2,0.2,0.3,0.2c0.1,0.1,0.2,0.1,0.3,0.2c0.1,0,0.2,0.1,0.3,0.1c0.1,0,0.2,0,0.4,0
					C154.5,100,155,99.8,155.3,99.5 M155.5,91.9L155.5,91.9c0.9,0,1.6-0.6,1.8-1.5c0.2-1-0.5-1.9-1.5-2.1c-1-0.2-1.9,0.5-2.1,1.5
					c-0.2,1,0.5,1.9,1.5,2.1C155.3,91.9,155.4,91.9,155.5,91.9 M156.9,83.7L156.9,83.7c0.9,0,1.6-0.6,1.8-1.5c0.2-1-0.5-1.9-1.5-2.1
					c-1-0.2-1.9,0.5-2.1,1.5c-0.2,1,0.5,1.9,1.5,2.1C156.7,83.7,156.8,83.7,156.9,83.7 M158.4,75.5L158.4,75.5
					c0.9,0,1.6-0.6,1.8-1.5c0.2-1-0.5-1.9-1.5-2.1c-1-0.2-1.9,0.5-2.1,1.5c-0.2,1,0.5,1.9,1.5,2.1C158.2,75.5,158.3,75.5,158.4,75.5
					 M159.8,67.4L159.8,67.4c0.9,0,1.6-0.6,1.8-1.5c0.2-1-0.5-1.9-1.5-2.1c-1-0.2-1.9,0.5-2.1,1.5c-0.2,1,0.5,1.9,1.5,2.1
					C159.6,67.3,159.7,67.4,159.8,67.4 M161.7,59.1c0.1,0,0.2-0.1,0.3-0.1s0.2-0.1,0.3-0.2c0.1-0.1,0.2-0.1,0.3-0.2
					c0.1-0.1,0.2-0.2,0.2-0.3c0.1-0.1,0.1-0.2,0.2-0.3c0-0.1,0.1-0.2,0.1-0.3c0-0.1,0-0.2,0-0.4c0-0.1,0-0.2,0-0.4
					c0-0.1-0.1-0.2-0.1-0.3c0-0.1-0.1-0.2-0.2-0.3c-0.1-0.1-0.1-0.2-0.2-0.3s-0.2-0.2-0.3-0.2c-0.1-0.1-0.2-0.1-0.3-0.2
					c-0.1,0-0.2-0.1-0.3-0.1c-0.6-0.1-1.2,0.1-1.7,0.5c-0.3,0.3-0.5,0.8-0.5,1.3c0,0.1,0,0.2,0,0.4c0,0.1,0.1,0.2,0.1,0.3
					c0,0.1,0.1,0.2,0.2,0.3c0.1,0.1,0.1,0.2,0.2,0.3c0.3,0.3,0.8,0.5,1.3,0.5C161.4,59.2,161.5,59.2,161.7,59.1 M45.9,63.8
					L45.9,63.8L45.9,63.8c1.1,0,1.9-0.9,1.8-1.9c0-1-0.9-1.8-1.9-1.8c-1,0-1.8,0.9-1.8,1.9C44.1,63,44.9,63.8,45.9,63.8 M54.2,63.5
					L54.2,63.5L54.2,63.5c1.1,0,1.9-0.9,1.8-1.9c0-1-0.9-1.8-1.9-1.8s-1.8,0.9-1.8,1.9C52.4,62.7,53.2,63.5,54.2,63.5 M62.4,63.1
					L62.4,63.1C62.4,63.1,62.5,63.1,62.4,63.1c1.1,0,1.9-0.9,1.8-1.9c0-1-0.9-1.8-1.9-1.8c-1,0-1.8,0.9-1.8,1.9
					C60.6,62.4,61.4,63.1,62.4,63.1 M70.6,62.8L70.6,62.8C70.7,62.8,70.7,62.8,70.6,62.8c1.1,0,1.9-0.9,1.8-1.9c0-1-0.9-1.8-1.9-1.8
					c-1,0-1.8,0.9-1.8,1.9C68.9,62,69.7,62.8,70.6,62.8 M78.9,62.5L78.9,62.5L78.9,62.5c1.1,0,1.9-0.9,1.8-1.9c0-1-0.9-1.8-1.9-1.8
					c-1,0-1.8,0.9-1.8,1.9C77.1,61.7,77.9,62.5,78.9,62.5 M87.1,62.1L87.1,62.1L87.1,62.1c1.1,0,1.9-0.9,1.8-1.9
					c0-1-0.9-1.8-1.9-1.8c-1,0-1.8,0.9-1.7,1.9C85.3,61.4,86.2,62.1,87.1,62.1 M95.4,61.8L95.4,61.8L95.4,61.8
					c1.1,0,1.9-0.9,1.8-1.9c0-1-0.9-1.8-1.9-1.8c-1,0-1.8,0.9-1.7,1.9C93.6,61.1,94.4,61.8,95.4,61.8 M103.6,61.5L103.6,61.5
					L103.6,61.5c1.1,0,1.9-0.9,1.8-1.9c0-1-0.9-1.8-1.9-1.8c-1,0-1.8,0.9-1.8,1.9C101.8,60.7,102.6,61.5,103.6,61.5 M111.9,61.2
					L111.9,61.2L111.9,61.2c1.1,0,1.9-0.9,1.8-1.9c0-1-0.9-1.8-1.9-1.8c-1,0-1.8,0.9-1.8,1.9C110.1,60.4,110.9,61.2,111.9,61.2
					 M120.1,60.8L120.1,60.8L120.1,60.8c1.1,0,1.9-0.9,1.8-1.9c0-1-0.9-1.8-1.9-1.8c-1,0-1.8,0.9-1.8,1.9
					C118.3,60.1,119.1,60.8,120.1,60.8 M128.3,60.5L128.3,60.5L128.3,60.5c1.1,0,1.9-0.9,1.8-1.9c0-1-0.9-1.8-1.9-1.8
					c-1,0-1.8,0.9-1.8,1.9C126.5,59.7,127.4,60.5,128.3,60.5 M136.6,60.2L136.6,60.2L136.6,60.2c1.1,0,1.9-0.9,1.8-1.9
					c0-1-0.9-1.8-1.9-1.8c-1,0-1.8,0.9-1.8,1.9C134.8,59.4,135.6,60.2,136.6,60.2 M144.8,59.8L144.8,59.8L144.8,59.8
					c1.1,0,1.9-0.9,1.8-1.9c0-1-0.9-1.8-1.9-1.7c-1,0-1.8,0.9-1.8,1.9C143,59.1,143.8,59.8,144.8,59.8 M153.1,59.5L153.1,59.5
					L153.1,59.5c1.1,0,1.9-0.9,1.8-1.9c0-1-0.9-1.8-1.9-1.7c-1,0-1.8,0.9-1.7,1.9C151.3,58.7,152.1,59.5,153.1,59.5"/>
			</g>
		</g>
		<path class="st102" d="M36.9,63.5c-0.5,0-1-0.2-1.3-0.5c-0.1-0.1-0.2-0.2-0.2-0.3c-0.1-0.1-0.1-0.2-0.2-0.3c0-0.1-0.1-0.2-0.1-0.3
			c0-0.1,0-0.2,0-0.4c0-0.1,0-0.2,0-0.4c0-0.1,0.1-0.2,0.1-0.3c0-0.1,0.1-0.2,0.2-0.3c0.1-0.1,0.1-0.2,0.2-0.3
			c0.1-0.1,0.2-0.2,0.3-0.2c0.1-0.1,0.2-0.1,0.3-0.2c0.1,0,0.2-0.1,0.3-0.1c0.2,0,0.5,0,0.7,0c0.1,0,0.2,0.1,0.3,0.1
			c0.1,0,0.2,0.1,0.3,0.2c0.1,0.1,0.2,0.1,0.3,0.2c0.1,0.1,0.2,0.2,0.2,0.3c0.1,0.1,0.1,0.2,0.2,0.3c0,0.1,0.1,0.2,0.1,0.3
			c0,0.1,0,0.2,0,0.4c0,0.1,0,0.2,0,0.4c0,0.1-0.1,0.2-0.1,0.3c0,0.1-0.1,0.2-0.2,0.3c-0.1,0.1-0.1,0.2-0.2,0.3
			c-0.1,0.1-0.2,0.2-0.3,0.2c-0.1,0.1-0.2,0.1-0.3,0.2c-0.1,0-0.2,0.1-0.3,0.1C37.2,63.5,37,63.5,36.9,63.5 M39.9,90.9L39.9,90.9
			c0.1,0,0.1,0,0.2,0c1-0.1,1.7-1,1.6-2c-0.1-1-1-1.7-2-1.6c-1,0.1-1.7,1-1.6,2C38.2,90.2,39,90.9,39.9,90.9 M38.9,81.7L38.9,81.7
			c0.1,0,0.1,0,0.2,0c1-0.1,1.7-1,1.6-2c-0.1-1-1-1.7-2-1.6c-1,0.1-1.7,1-1.6,2C37.2,81,38,81.7,38.9,81.7 M37.9,72.6L37.9,72.6
			c0.1,0,0.1,0,0.2,0c1-0.1,1.7-1,1.6-2c-0.1-1-1-1.7-2-1.6c-1,0.1-1.7,1-1.6,2C36.2,71.9,37,72.6,37.9,72.6 M41.3,99.9
			c0.1,0,0.2-0.1,0.3-0.1c0.1,0,0.2-0.1,0.3-0.2c0.1-0.1,0.2-0.1,0.3-0.2c0.1-0.1,0.2-0.2,0.2-0.3c0.1-0.1,0.1-0.2,0.2-0.3
			c0-0.1,0.1-0.2,0.1-0.3c0-0.1,0-0.2,0-0.4s0-0.2,0-0.4c0-0.1-0.1-0.2-0.1-0.3c0-0.1-0.1-0.2-0.2-0.3c-0.1-0.1-0.1-0.2-0.2-0.3
			c-0.1-0.1-0.2-0.2-0.3-0.2c-0.1-0.1-0.2-0.1-0.3-0.2c-0.1,0-0.2-0.1-0.3-0.1c-0.2-0.1-0.5-0.1-0.7,0c-0.1,0-0.2,0.1-0.3,0.1
			c-0.1,0-0.2,0.1-0.3,0.2c-0.1,0.1-0.2,0.1-0.3,0.2c-0.1,0.1-0.2,0.2-0.2,0.3c-0.1,0.1-0.1,0.2-0.2,0.3c0,0.1-0.1,0.2-0.1,0.3
			c0,0.1,0,0.2,0,0.4s0,0.2,0,0.4c0,0.1,0.1,0.2,0.1,0.3c0,0.1,0.1,0.2,0.2,0.3c0.1,0.1,0.1,0.2,0.2,0.3c0.1,0.1,0.2,0.2,0.3,0.2
			c0.1,0.1,0.2,0.1,0.3,0.2c0.1,0,0.2,0.1,0.3,0.1c0.1,0,0.2,0,0.4,0C41.1,100,41.2,100,41.3,99.9 M49,99.9L49,99.9L49,99.9
			c1,0,1.8-0.8,1.8-1.8c0-1-0.8-1.8-1.8-1.8c-1,0-1.8,0.8-1.8,1.8C47.2,99.1,48,99.9,49,99.9 M57,99.9L57,99.9c1,0,1.8-0.8,1.8-1.8
			c0-1-0.8-1.8-1.8-1.8c-1,0-1.8,0.8-1.8,1.8C55.2,99.1,56,99.9,57,99.9 M65,99.8L65,99.8L65,99.8c1,0,1.8-0.8,1.8-1.8
			c0-1-0.8-1.8-1.8-1.8c-1,0-1.8,0.8-1.8,1.8C63.2,99,64,99.8,65,99.8 M73,99.8L73,99.8L73,99.8c1,0,1.8-0.8,1.8-1.8
			c0-1-0.8-1.8-1.8-1.8c-1,0-1.8,0.8-1.8,1.8C71.2,99,72,99.8,73,99.8 M81.1,99.8L81.1,99.8L81.1,99.8c1,0,1.8-0.8,1.8-1.8
			c0-1-0.8-1.8-1.8-1.8c-1,0-1.8,0.8-1.8,1.8C79.2,99,80.1,99.8,81.1,99.8 M89.1,99.7L89.1,99.7L89.1,99.7c1,0,1.8-0.8,1.8-1.8
			c0-1-0.8-1.8-1.8-1.8c-1,0-1.8,0.8-1.8,1.8C87.3,98.9,88.1,99.7,89.1,99.7 M97.1,99.7L97.1,99.7L97.1,99.7c1,0,1.8-0.8,1.8-1.8
			c0-1-0.8-1.8-1.8-1.8c-1,0-1.8,0.8-1.8,1.8C95.3,98.9,96.1,99.7,97.1,99.7 M105.1,99.6L105.1,99.6L105.1,99.6c1,0,1.8-0.8,1.8-1.8
			c0-1-0.8-1.8-1.8-1.8c-1,0-1.8,0.8-1.8,1.8C103.3,98.8,104.1,99.6,105.1,99.6 M113.1,99.6L113.1,99.6L113.1,99.6
			c1,0,1.8-0.8,1.8-1.8c0-1-0.8-1.8-1.8-1.8c-1,0-1.8,0.8-1.8,1.8C111.3,98.8,112.1,99.6,113.1,99.6 M121.2,99.5L121.2,99.5
			L121.2,99.5c1,0,1.8-0.8,1.8-1.8c0-1-0.8-1.8-1.8-1.8c-1,0-1.8,0.8-1.8,1.8C119.3,98.7,120.2,99.5,121.2,99.5 M129.2,99.5
			L129.2,99.5L129.2,99.5c1,0,1.8-0.8,1.8-1.8c0-1-0.8-1.8-1.8-1.8c-1,0-1.8,0.8-1.8,1.8C127.4,98.7,128.2,99.5,129.2,99.5
			 M137.2,99.5L137.2,99.5L137.2,99.5c1,0,1.8-0.8,1.8-1.8c0-1-0.8-1.8-1.8-1.8c-1,0-1.8,0.8-1.8,1.8
			C135.4,98.6,136.2,99.5,137.2,99.5 M145.2,99.4L145.2,99.4L145.2,99.4c1,0,1.8-0.8,1.8-1.8c0-1-0.8-1.8-1.8-1.8
			c-1,0-1.8,0.8-1.8,1.8C143.4,98.6,144.2,99.4,145.2,99.4 M154.5,98.8c0.3-0.3,0.5-0.8,0.5-1.3s-0.2-1-0.5-1.3
			c-0.1-0.1-0.2-0.2-0.3-0.2c-0.1-0.1-0.2-0.1-0.3-0.2s-0.2-0.1-0.3-0.1c-0.6-0.1-1.2,0.1-1.7,0.5c-0.3,0.3-0.5,0.8-0.5,1.3
			s0.2,1,0.5,1.3c0.1,0.1,0.2,0.2,0.3,0.2c0.1,0.1,0.2,0.1,0.3,0.2c0.1,0,0.2,0.1,0.3,0.1c0.1,0,0.2,0,0.4,0
			C153.7,99.4,154.2,99.2,154.5,98.8 M154.7,91.2L154.7,91.2c0.9,0,1.6-0.6,1.8-1.5c0.2-1-0.5-1.9-1.5-2.1c-1-0.2-1.9,0.5-2.1,1.5
			c-0.2,1,0.5,1.9,1.5,2.1C154.5,91.2,154.6,91.2,154.7,91.2 M156.2,83L156.2,83c0.9,0,1.6-0.6,1.8-1.5c0.2-1-0.5-1.9-1.5-2.1
			c-1-0.2-1.9,0.5-2.1,1.5c-0.2,1,0.5,1.9,1.5,2.1C156,83,156.1,83,156.2,83 M157.6,74.9L157.6,74.9c0.9,0,1.6-0.6,1.8-1.5
			c0.2-1-0.5-1.9-1.5-2.1c-1-0.2-1.9,0.5-2.1,1.5c-0.2,1,0.5,1.9,1.5,2.1C157.4,74.9,157.5,74.9,157.6,74.9 M159.1,66.7L159.1,66.7
			c0.9,0,1.6-0.6,1.8-1.5c0.2-1-0.5-1.9-1.5-2.1c-1-0.2-1.9,0.5-2.1,1.5c-0.2,1,0.5,1.9,1.5,2.1C158.9,66.7,159,66.7,159.1,66.7
			 M160.9,58.5c0.1,0,0.2-0.1,0.3-0.1c0.1,0,0.2-0.1,0.3-0.2c0.1-0.1,0.2-0.1,0.3-0.2c0.1-0.1,0.2-0.2,0.2-0.3
			c0.1-0.1,0.1-0.2,0.2-0.3c0-0.1,0.1-0.2,0.1-0.3c0-0.1,0-0.2,0-0.4c0-0.1,0-0.2,0-0.4c0-0.1-0.1-0.2-0.1-0.3
			c0-0.1-0.1-0.2-0.2-0.3c-0.1-0.1-0.1-0.2-0.2-0.3s-0.2-0.2-0.3-0.2c-0.1-0.1-0.2-0.1-0.3-0.2c-0.1,0-0.2-0.1-0.3-0.1
			c-0.6-0.1-1.2,0.1-1.7,0.5c-0.3,0.3-0.5,0.8-0.5,1.3c0,0.1,0,0.2,0,0.4c0,0.1,0.1,0.2,0.1,0.3c0,0.1,0.1,0.2,0.2,0.3
			c0.1,0.1,0.1,0.2,0.2,0.3c0.3,0.3,0.8,0.5,1.3,0.5C160.7,58.5,160.8,58.5,160.9,58.5 M45.2,63.1L45.2,63.1L45.2,63.1
			c1.1,0,1.9-0.9,1.8-1.9c0-1-0.9-1.8-1.9-1.8c-1,0-1.8,0.9-1.8,1.9C43.4,62.4,44.2,63.1,45.2,63.1 M53.4,62.8L53.4,62.8L53.4,62.8
			c1.1,0,1.9-0.9,1.8-1.9c0-1-0.9-1.8-1.9-1.8c-1,0-1.8,0.9-1.8,1.9C51.6,62,52.4,62.8,53.4,62.8 M61.6,62.5L61.6,62.5
			C61.7,62.5,61.7,62.5,61.6,62.5c1.1,0,1.9-0.9,1.8-1.9c0-1-0.9-1.8-1.9-1.8c-1,0-1.8,0.9-1.8,1.9C59.9,61.7,60.7,62.5,61.6,62.5
			 M69.9,62.2L69.9,62.2C69.9,62.2,69.9,62.1,69.9,62.2c1.1,0,1.9-0.9,1.8-1.9c0-1-0.9-1.8-1.9-1.8c-1,0-1.8,0.9-1.8,1.9
			C68.1,61.4,68.9,62.2,69.9,62.2 M78.1,61.8L78.1,61.8L78.1,61.8c1.1,0,1.9-0.9,1.8-1.9c0-1-0.9-1.8-1.9-1.8c-1,0-1.8,0.9-1.8,1.9
			C76.3,61.1,77.1,61.8,78.1,61.8 M86.4,61.5L86.4,61.5L86.4,61.5c1.1,0,1.9-0.9,1.8-1.9c0-1-0.9-1.8-1.9-1.8c-1,0-1.8,0.9-1.7,1.9
			C84.6,60.7,85.4,61.5,86.4,61.5 M94.6,61.2L94.6,61.2L94.6,61.2c1.1,0,1.9-0.9,1.8-1.9c0-1-0.9-1.8-1.9-1.8c-1,0-1.8,0.9-1.7,1.9
			C92.8,60.4,93.6,61.2,94.6,61.2 M102.8,60.8L102.8,60.8L102.8,60.8c1.1,0,1.9-0.9,1.8-1.9c0-1-0.9-1.8-1.9-1.8
			c-1,0-1.8,0.9-1.8,1.9C101.1,60.1,101.9,60.8,102.8,60.8 M111.1,60.5L111.1,60.5L111.1,60.5c1.1,0,1.9-0.9,1.8-1.9
			c0-1-0.9-1.8-1.9-1.8c-1,0-1.8,0.9-1.8,1.9C109.3,59.7,110.1,60.5,111.1,60.5 M119.3,60.2L119.3,60.2L119.3,60.2
			c1.1,0,1.9-0.9,1.8-1.9c0-1-0.9-1.8-1.9-1.8c-1,0-1.8,0.9-1.8,1.9C117.5,59.4,118.4,60.2,119.3,60.2 M127.6,59.8L127.6,59.8
			L127.6,59.8c1.1,0,1.9-0.9,1.8-1.9c0-1-0.9-1.8-1.9-1.8c-1,0-1.8,0.9-1.8,1.9C125.8,59.1,126.6,59.8,127.6,59.8 M135.8,59.5
			L135.8,59.5L135.8,59.5c1.1,0,1.9-0.9,1.8-1.9c0-1-0.9-1.8-1.9-1.8c-1,0-1.8,0.9-1.8,1.9C134,58.7,134.8,59.5,135.8,59.5
			 M144.1,59.2L144.1,59.2L144.1,59.2c1.1,0,1.9-0.9,1.8-1.9c0-1-0.9-1.8-1.9-1.7c-1,0-1.8,0.9-1.8,1.9
			C142.3,58.4,143.1,59.2,144.1,59.2 M152.3,58.8L152.3,58.8L152.3,58.8c1.1,0,1.9-0.9,1.8-1.9c0-1-0.9-1.8-1.9-1.7
			c-1,0-1.8,0.9-1.7,1.9C150.5,58.1,151.3,58.8,152.3,58.8"/>
		<g class="st103">
			<g>
				<defs>
					<rect id="SVGID_149_" x="35.8" y="55.5" width="125" height="42.8"/>
				</defs>
				<clipPath id="SVGID_150_">
					<use xlink:href="#SVGID_149_"  style="overflow:visible;"/>
				</clipPath>
				<path class="st104" d="M40.5,98.3c-0.1,0-0.1,0-0.2,0h0c0,0,0,0-0.1,0c-0.1,0-0.1,0-0.1-0.1c0,0-0.1-0.1-0.1-0.1
					c0,0-0.1-0.1-0.1-0.1c0,0-0.1-0.1-0.1-0.1c0-0.1,0-0.1,0-0.2c0,0,0-0.1,0-0.1c0,0,0-0.1,0-0.1c0-0.1,0-0.1,0-0.2
					c0,0,0-0.1,0.1-0.1l0.1-0.1c0.1-0.1,0.1-0.1,0.2-0.1c0,0,0,0,0.1,0c0,0,0.1,0,0.2,0c0,0,0.1,0,0.1,0c0,0,0.1,0,0.1,0l0.2,0
					c0,0,0.1,0,0.1,0.1c0,0,0,0,0.1,0.1c0,0,0.1,0.2,0.1,0.2c0,0,0,0.2,0.1,0.2c0,0.1,0,0.2,0,0.2c0,0,0,0.2,0,0.2
					c0,0.1,0,0.1,0,0.1c0,0-0.1,0.1-0.1,0.1c0,0,0,0-0.1,0.1c0,0-0.1,0.1-0.1,0.1C40.7,98.3,40.6,98.3,40.5,98.3c0.1,0,0.1,0,0.1,0
					C40.6,98.3,40.5,98.3,40.5,98.3 M48.5,98.3c-0.4,0-0.7-0.3-0.7-0.7c0-0.4,0.3-0.7,0.7-0.7c0.4,0,0.7,0.3,0.7,0.7
					c0,0.2-0.1,0.4-0.2,0.5C48.9,98.2,48.7,98.3,48.5,98.3L48.5,98.3z M56.5,98.3c-0.4,0-0.7-0.3-0.7-0.7c0-0.4,0.3-0.7,0.7-0.7
					c0.4,0,0.7,0.3,0.7,0.7c0,0.2-0.1,0.4-0.2,0.5C56.9,98.2,56.7,98.3,56.5,98.3 M64.6,98.2c-0.4,0-0.7-0.3-0.7-0.7
					c0-0.4,0.3-0.7,0.7-0.7c0.4,0,0.7,0.3,0.7,0.7c0,0.2-0.1,0.4-0.2,0.5C64.9,98.1,64.8,98.2,64.6,98.2L64.6,98.2z M72.6,98.2
					c-0.4,0-0.7-0.3-0.7-0.7c0-0.2,0.1-0.4,0.2-0.5c0.1-0.1,0.3-0.2,0.5-0.2c0.4,0,0.7,0.3,0.7,0.7c0,0.2-0.1,0.4-0.2,0.5
					C72.9,98.1,72.8,98.2,72.6,98.2L72.6,98.2z M80.6,98.1c-0.4,0-0.7-0.3-0.7-0.7c0-0.2,0.1-0.4,0.2-0.5c0.1-0.1,0.2-0.2,0.5-0.2
					c0.4,0,0.7,0.3,0.7,0.7C81.3,97.8,81,98.1,80.6,98.1L80.6,98.1z M88.6,98.1c-0.4,0-0.7-0.3-0.7-0.7c0-0.2,0.1-0.4,0.2-0.5
					c0.1-0.1,0.3-0.2,0.5-0.2c0.4,0,0.7,0.3,0.7,0.7C89.3,97.8,89,98.1,88.6,98.1L88.6,98.1z M96.6,98c-0.4,0-0.7-0.3-0.7-0.7
					c0-0.4,0.3-0.7,0.7-0.7c0.4,0,0.7,0.3,0.7,0.7C97.3,97.7,97,98,96.6,98L96.6,98z M104.7,98c-0.4,0-0.7-0.3-0.7-0.7
					c0-0.2,0.1-0.4,0.2-0.5c0.1-0.1,0.3-0.2,0.5-0.2c0.4,0,0.7,0.3,0.7,0.7C105.4,97.7,105.1,98,104.7,98L104.7,98z M112.7,98
					c-0.4,0-0.7-0.3-0.7-0.7c0-0.2,0.1-0.4,0.2-0.5c0.1-0.1,0.3-0.2,0.5-0.2c0.4,0,0.7,0.3,0.7,0.7c0,0.2-0.1,0.4-0.2,0.5
					C113,97.9,112.9,97.9,112.7,98L112.7,98z M120.7,97.9c-0.4,0-0.7-0.3-0.7-0.7c0-0.2,0.1-0.3,0.2-0.5c0.1-0.1,0.3-0.2,0.5-0.2
					c0.4,0,0.7,0.3,0.7,0.7C121.4,97.6,121.1,97.9,120.7,97.9L120.7,97.9z M128.7,97.9c-0.4,0-0.7-0.3-0.7-0.7
					c0-0.4,0.3-0.7,0.7-0.7c0.4,0,0.7,0.3,0.7,0.7c0,0.2-0.1,0.4-0.2,0.5C129.1,97.8,128.9,97.9,128.7,97.9L128.7,97.9z M136.7,97.8
					c-0.4,0-0.7-0.3-0.7-0.7c0-0.4,0.3-0.7,0.7-0.7c0.4,0,0.7,0.3,0.7,0.7c0,0.2-0.1,0.4-0.2,0.5C137.1,97.7,136.9,97.8,136.7,97.8
					L136.7,97.8z M144.8,97.8c-0.4,0-0.7-0.3-0.7-0.7c0-0.4,0.3-0.7,0.7-0.7c0.4,0,0.7,0.3,0.7,0.7c0,0.2-0.1,0.4-0.2,0.5
					C145.1,97.7,145,97.8,144.8,97.8L144.8,97.8z M152.8,97.7c-0.1,0-0.1,0-0.1,0c0,0-0.2,0-0.2,0c0,0-0.1-0.1-0.1-0.1
					c0,0,0,0-0.1,0c-0.2-0.2-0.2-0.3-0.2-0.5c0-0.2,0.1-0.4,0.2-0.5c0.1-0.1,0.3-0.2,0.5-0.2c0,0,0.1,0,0.1,0c0,0,0.1,0,0.1,0
					c0,0,0.1,0.1,0.1,0.1c0,0,0,0,0.1,0.1c0.1,0.1,0.2,0.3,0.2,0.5c0,0.2-0.1,0.4-0.2,0.5C153.2,97.7,153,97.7,152.8,97.7
					 M154.3,89.6c0,0-0.1,0-0.1,0c-0.4-0.1-0.6-0.4-0.6-0.8c0.1-0.3,0.3-0.6,0.7-0.6c0,0,0.1,0,0.1,0c0.4,0.1,0.6,0.4,0.6,0.8
					C154.9,89.3,154.6,89.6,154.3,89.6 M39.5,89.2c-0.3,0-0.6-0.3-0.7-0.6c0-0.2,0-0.4,0.1-0.5c0.1-0.1,0.3-0.2,0.5-0.3h0
					c0.4,0,0.7,0.3,0.8,0.6c0,0.4-0.2,0.7-0.6,0.8C39.6,89.2,39.5,89.2,39.5,89.2 M155.7,81.4c0,0-0.1,0-0.1,0
					c-0.2,0-0.3-0.1-0.4-0.3c-0.1-0.2-0.1-0.3-0.1-0.5c0.1-0.3,0.3-0.6,0.7-0.6c0,0,0.1,0,0.1,0c0.2,0,0.3,0.1,0.5,0.3
					c0.1,0.2,0.1,0.3,0.1,0.5C156.3,81.2,156,81.4,155.7,81.4 M38.5,80.1c-0.3,0-0.6-0.3-0.7-0.6c0-0.4,0.2-0.7,0.6-0.8h0
					c0.4,0,0.7,0.3,0.8,0.6C39.2,79.7,38.9,80,38.5,80.1L38.5,80.1z M157.2,73.2c0,0-0.1,0-0.1,0c-0.2,0-0.3-0.1-0.5-0.3
					c-0.1-0.2-0.1-0.3-0.1-0.5c0.1-0.3,0.3-0.6,0.7-0.6c0,0,0.1,0,0.1,0c0.4,0.1,0.6,0.4,0.6,0.8C157.8,73,157.5,73.2,157.2,73.2
					 M37.5,71c-0.3,0-0.6-0.3-0.7-0.6c0-0.4,0.2-0.7,0.6-0.8h0c0.4,0,0.7,0.3,0.8,0.6c0,0.2,0,0.4-0.1,0.5
					C37.9,70.9,37.7,70.9,37.5,71L37.5,71z M158.6,65.1c0,0-0.1,0-0.1,0c-0.4-0.1-0.6-0.4-0.5-0.8c0.1-0.3,0.3-0.6,0.7-0.6
					c0,0,0.1,0,0.1,0c0.4,0.1,0.6,0.4,0.6,0.8C159.2,64.8,159,65.1,158.6,65.1 M36.5,61.8c-0.2,0-0.4-0.1-0.5-0.2c0,0,0-0.1-0.1-0.1
					c0,0-0.1-0.1-0.1-0.1c0,0,0-0.1,0-0.2c0,0,0,0,0-0.1c0-0.1,0-0.1,0-0.1c0-0.1,0-0.2,0.1-0.2c0,0,0,0,0,0
					c0.1-0.1,0.1-0.1,0.1-0.1c0,0,0.1-0.1,0.1-0.1c0,0,0.1-0.1,0.1-0.1c0.1,0,0.1,0,0.2,0c0,0,0.1,0,0.1,0c0,0,0.1,0,0.1,0
					c0,0,0.1,0,0.1,0c0.1,0,0.1,0.1,0.1,0.1c0,0,0.1,0.1,0.1,0.1c0,0,0.1,0.1,0.1,0.1c0,0,0.1,0.1,0.1,0.1c0,0.1,0,0.1,0,0.1
					c0,0.1,0,0.1,0,0.2c0,0.1,0,0.1,0,0.1c0,0-0.1,0.2-0.1,0.2c0,0,0,0.1-0.1,0.1c0,0,0,0.1-0.1,0.1c0,0-0.1,0.1-0.1,0.1
					c0,0-0.1,0.1-0.1,0.1c0,0-0.1,0-0.2,0C36.6,61.8,36.5,61.8,36.5,61.8 M44.7,61.5c-0.4,0-0.7-0.3-0.7-0.7c0-0.4,0.3-0.7,0.7-0.7
					c0.4,0,0.7,0.3,0.7,0.7C45.4,61.2,45.1,61.5,44.7,61.5L44.7,61.5z M52.9,61.2c-0.4,0-0.7-0.3-0.7-0.7c0-0.4,0.3-0.7,0.7-0.7h0
					c0.4,0,0.7,0.3,0.7,0.7C53.7,60.8,53.4,61.2,52.9,61.2L52.9,61.2z M61.1,60.8c-0.3,0-0.6-0.3-0.6-0.7c0-0.4,0.3-0.7,0.7-0.7h0
					c0.4,0,0.7,0.3,0.7,0.7C61.9,60.5,61.6,60.8,61.1,60.8C61.2,60.8,61.2,60.8,61.1,60.8 M69.4,60.5c-0.3,0-0.6-0.3-0.6-0.7
					c0-0.2,0.1-0.3,0.2-0.5c0.1-0.1,0.3-0.2,0.5-0.2h0c0.4,0,0.7,0.3,0.7,0.7c0,0.2-0.1,0.4-0.2,0.5C69.8,60.4,69.6,60.5,69.4,60.5
					C69.4,60.5,69.4,60.5,69.4,60.5 M77.7,60.2c-0.4,0-0.7-0.3-0.7-0.7c0-0.4,0.3-0.7,0.7-0.7h0c0.4,0,0.7,0.3,0.7,0.7
					c0,0.2-0.1,0.4-0.2,0.5C78.1,60.1,77.9,60.2,77.7,60.2L77.7,60.2z M85.9,59.9c-0.4,0-0.7-0.3-0.7-0.7c0-0.4,0.3-0.7,0.7-0.7
					c0.4,0,0.7,0.3,0.7,0.7c0,0.2-0.1,0.4-0.2,0.5C86.3,59.8,86.1,59.8,85.9,59.9L85.9,59.9z M94.1,59.5c-0.4,0-0.7-0.3-0.7-0.7
					c0-0.4,0.3-0.7,0.7-0.7c0.4,0,0.7,0.3,0.7,0.7c0,0.2-0.1,0.4-0.2,0.5C94.5,59.4,94.4,59.5,94.1,59.5L94.1,59.5z M102.4,59.2
					c-0.4,0-0.7-0.3-0.7-0.7c0-0.4,0.3-0.7,0.7-0.7c0.4,0,0.7,0.3,0.7,0.7C103.1,58.8,102.8,59.2,102.4,59.2L102.4,59.2z
					 M110.6,58.9c-0.4,0-0.7-0.3-0.7-0.7c0-0.2,0.1-0.4,0.2-0.5c0.1-0.1,0.3-0.2,0.5-0.2h0c0.4,0,0.7,0.3,0.7,0.7
					C111.3,58.5,111.1,58.8,110.6,58.9L110.6,58.9z M118.9,58.5c-0.4,0-0.7-0.3-0.7-0.7c0-0.4,0.3-0.7,0.7-0.7h0
					c0.4,0,0.7,0.3,0.7,0.7C119.6,58.2,119.3,58.5,118.9,58.5L118.9,58.5z M127.1,58.2c-0.4,0-0.7-0.3-0.7-0.7
					c0-0.4,0.3-0.7,0.7-0.7h0c0.4,0,0.7,0.3,0.7,0.7C127.8,57.9,127.5,58.2,127.1,58.2L127.1,58.2z M135.4,57.9
					c-0.4,0-0.7-0.3-0.7-0.7c0-0.4,0.3-0.7,0.7-0.7h0c0.4,0,0.7,0.3,0.7,0.7C136.1,57.5,135.8,57.9,135.4,57.9L135.4,57.9z
					 M143.6,57.5c-0.4,0-0.7-0.3-0.7-0.7c0-0.2,0.1-0.4,0.2-0.5c0.1-0.1,0.3-0.2,0.5-0.2h0c0.4,0,0.7,0.3,0.7,0.6
					c0,0.2-0.1,0.4-0.2,0.5C144,57.5,143.8,57.5,143.6,57.5L143.6,57.5z M151.8,57.2c-0.4,0-0.7-0.3-0.7-0.7c0-0.2,0.1-0.4,0.2-0.5
					c0.1-0.1,0.3-0.2,0.5-0.2h0c0.4,0,0.7,0.3,0.7,0.6c0,0.2-0.1,0.4-0.2,0.5C152.2,57.1,152.1,57.2,151.8,57.2L151.8,57.2z
					 M160.1,56.9c-0.2,0-0.4-0.1-0.5-0.2c0,0-0.1-0.1-0.1-0.1c0,0,0,0,0-0.1c0,0,0-0.1,0-0.2c0-0.3,0.1-0.4,0.2-0.6
					c0.1-0.1,0.3-0.2,0.5-0.2c0,0,0.1,0,0.1,0c0,0,0.1,0,0.1,0c0,0,0.1,0,0.1,0.1c0,0,0.1,0,0.1,0.1c0,0,0.1,0.1,0.1,0.1
					c0,0,0,0.1,0.1,0.1c0,0,0,0.1,0,0.1c0,0,0,0.1,0,0.1c0,0.1,0,0.1,0,0.2c0,0,0,0,0,0c0,0,0,0.1,0,0.1c0,0,0,0.1,0,0.1
					c0,0.1-0.1,0.1-0.1,0.1c0,0-0.1,0.1-0.1,0.1c0,0,0,0,0,0c0,0,0,0-0.1,0c0,0-0.1,0-0.2,0C160.2,56.9,160.1,56.9,160.1,56.9"/>
			</g>
		</g>
		<rect x="85.4" y="75.6" class="st105" width="4.1" height="12.3"/>
		<rect x="85.4" y="67.4" class="st105" width="4.1" height="4.1"/>
		<rect x="105.9" y="83.8" class="st105" width="4.1" height="4.1"/>
		<path class="st105" d="M62.6,67.4h-1.8h-4.1h-2.2h-1.9v20.5h1.9h2.2h4.1h1.8h2.3V67.4H62.6z M60.8,75.6h-4.1v-4.1h4.1V75.6z
			 M56.7,79.7h4.1v4.1h-4.1V79.7z"/>
		<path class="st105" d="M79.7,75.6h-2.5h-4.1v-8.2H69v20.5h2.6h1.5h4.1v-4.1h4.1v-8.2H79.7z M73.1,79.7h4.1v4.1h-4.1V79.7z"/>
		<polygon class="st105" points="101.8,79.7 101.8,75.6 97.7,75.6 97.7,71.5 93.6,71.5 93.6,87.9 97.7,87.9 97.7,87.9 101.8,87.9 
			101.8,83.8 97.7,83.8 97.7,79.7 		"/>
		<rect x="114.1" y="67.4" class="st105" width="4.1" height="20.5"/>
		<polygon class="st105" points="130.5,79.7 130.5,75.6 126.4,75.6 126.4,71.3 122.3,71.3 122.3,87.8 122.5,87.8 122.5,87.9 
			130.5,87.9 130.5,83.8 126.4,83.8 126.4,79.7 		"/>
		<path class="st105" d="M146.9,67.4h-4.1v8.2h-6.7v0h-1.5v12.3h1.5v0h8v0h2.8V67.4z M142.8,83.8h-4.1v-4.1h4.1V83.8z"/>
		<rect x="84.4" y="74.6" class="st106" width="4.1" height="12.3"/>
		<rect x="84.4" y="66.4" class="st106" width="4.1" height="4.1"/>
		<rect x="104.9" y="82.8" class="st106" width="4.1" height="4.1"/>
		<path class="st106" d="M61.6,66.4h-1.8h-4.1h-2.2h-1.9v20.5h1.9h2.2h4.1h1.8h2.3V66.4H61.6z M59.8,74.6h-4.1v-4.1h4.1V74.6z
			 M55.7,78.7h4.1v4.1h-4.1V78.7z"/>
		<path class="st106" d="M78.7,74.6h-2.5h-4.1v-8.2H68v20.5h2.6h1.5h4.1v-4.1h4.1v-8.2H78.7z M72.1,78.7h4.1v4.1h-4.1V78.7z"/>
		<polygon class="st106" points="100.8,78.7 100.8,74.6 96.7,74.6 96.7,70.5 92.6,70.5 92.6,86.9 96.7,86.9 96.7,86.9 100.8,86.9 
			100.8,82.8 96.7,82.8 96.7,78.7 		"/>
		<rect x="113.1" y="66.4" class="st106" width="4.1" height="20.5"/>
		<polygon class="st106" points="129.5,78.7 129.5,74.6 125.4,74.6 125.4,70.3 121.3,70.3 121.3,86.8 121.5,86.8 121.5,86.9 
			129.5,86.9 129.5,82.8 125.4,82.8 125.4,78.7 		"/>
		<path class="st106" d="M145.9,66.4h-4.1v8.2h-6.7v0h-1.5v12.3h1.5v0h8v0h2.8V66.4z M141.8,82.8h-4.1v-4.1h4.1V82.8z"/>
		<path class="st105" d="M90.2,90.8V90h-0.9h-0.9h-0.6v0.8h0v4.6h0.8v-1.5h1.5V93h0.8v-2.3H90.2z M88.5,93v-2.3h0.8h0.8V93H88.5z"/>
		<rect x="92.3" y="93" class="st105" width="2.3" height="0.8"/>
		<path class="st105" d="M93.9,92.3h0.3h0.4v-1.5h-0.8V90h-1.5v0.8h-0.8V93h0.8v-0.8H93.9z M92.3,90.8h1.5v0.8h-1.5V90.8z"/>
		<polygon class="st105" points="98.4,90 97.7,90 96.9,90 96.9,90.8 96.1,90.8 96.1,90 95.4,90 95.4,93.8 96.1,93.8 96.1,91.5 
			96.9,91.5 96.9,90.8 97.7,90.8 97.7,93.8 98.4,93.8 98.4,90 		"/>
		<polygon class="st105" points="111.3,90.8 111.3,90 110.6,90 110.6,89.2 109.8,89.2 109.8,90 109.1,90 109.1,90.8 109.8,90.8 
			109.8,93 109.8,93.5 109.8,93.8 111.3,93.8 111.3,93 110.6,93 110.6,90.8 		"/>
		<rect x="112.1" y="92.3" class="st105" width="0.8" height="0.8"/>
		<rect x="112.9" y="90" class="st105" width="1.5" height="0.8"/>
		<polygon class="st105" points="114.4,90.8 114.4,91.5 112.8,91.5 112.8,92.3 114.4,92.3 114.4,93 112.8,93 112.8,93.8 115.1,93.8 
			115.1,93.2 115.1,93 115.1,90.8 		"/>
		<polygon class="st105" points="102.2,89.2 101.5,89.2 101.5,95.3 102.2,95.3 102.2,93.8 103.7,93.8 103.7,93 102.2,93 		"/>
		<polygon class="st105" points="103.7,89.2 103.7,90.8 103,90.8 103,91.5 103.7,91.5 103.7,90.8 104.5,90.8 104.5,89.2 		"/>
		<rect x="103.7" y="91.5" class="st105" width="0.8" height="1.5"/>
		<rect x="102.2" y="88.5" class="st105" width="1.5" height="0.8"/>
		<polygon class="st105" points="108.3,92.3 108.3,90.8 107.5,90.8 107.5,91.5 106,91.5 106,90.8 105.3,90.8 105.3,93 106,93 
			106,93.8 108.3,93.8 108.3,93 106,93 106,92.3 107.5,92.3 107.5,92.3 		"/>
		<rect x="106" y="90" class="st105" width="1.5" height="0.8"/>
		<polygon class="st105" points="86.3,90.8 86.3,90 84.7,90 84.7,90.8 84,90.8 84,93 84.7,93 84.7,93.8 86.3,93.8 86.3,93 84.8,93 
			84.8,90.8 86.3,90.8 86.3,93 87,93 87,90.8 		"/>
		<path class="st106" d="M89.8,90.4v-0.8h-0.9h-0.9h-0.6v0.8h0v4.6h0.8v-1.5h1.5v-0.8h0.8v-2.3H89.8z M88.1,92.7v-2.3h0.8h0.8v2.3
			H88.1z"/>
		<rect x="91.9" y="92.7" class="st106" width="2.3" height="0.8"/>
		<path class="st106" d="M93.4,91.9h0.3h0.4v-1.5h-0.8v-0.8h-1.5v0.8h-0.8v2.3h0.8v-0.8H93.4z M91.9,90.4h1.5v0.8h-1.5V90.4z"/>
		<polygon class="st106" points="98,89.6 97.2,89.6 96.5,89.6 96.5,90.4 95.7,90.4 95.7,89.6 94.9,89.6 94.9,93.4 95.7,93.4 
			95.7,91.1 96.5,91.1 96.5,90.4 97.2,90.4 97.2,93.4 98,93.4 98,89.6 		"/>
		<polygon class="st106" points="110.9,90.4 110.9,89.6 110.1,89.6 110.1,88.9 109.4,88.9 109.4,89.6 108.6,89.6 108.6,90.4 
			109.4,90.4 109.4,92.7 109.4,93.2 109.4,93.4 110.9,93.4 110.9,92.7 110.1,92.7 110.1,90.4 		"/>
		<rect x="111.7" y="91.9" class="st106" width="0.8" height="0.8"/>
		<rect x="112.4" y="89.6" class="st106" width="1.5" height="0.8"/>
		<polygon class="st106" points="113.9,90.4 113.9,91.1 112.4,91.1 112.4,91.9 113.9,91.9 113.9,92.7 112.4,92.7 112.4,93.4 
			114.7,93.4 114.7,92.9 114.7,92.7 114.7,90.4 		"/>
		<polygon class="st106" points="101.8,88.9 101,88.9 101,94.9 101.8,94.9 101.8,93.4 103.3,93.4 103.3,92.7 101.8,92.7 		"/>
		<polygon class="st106" points="103.3,88.9 103.3,90.4 102.5,90.4 102.5,91.1 103.3,91.1 103.3,90.4 104.1,90.4 104.1,88.9 		"/>
		<rect x="103.3" y="91.1" class="st106" width="0.8" height="1.5"/>
		<rect x="101.8" y="88.1" class="st106" width="1.5" height="0.8"/>
		<polygon class="st106" points="107.9,91.9 107.9,90.4 107.1,90.4 107.1,91.1 105.6,91.1 105.6,90.4 104.8,90.4 104.8,92.7 
			105.6,92.7 105.6,93.4 107.9,93.4 107.9,92.7 105.6,92.7 105.6,91.9 107.1,91.9 107.1,91.9 		"/>
		<rect x="105.6" y="89.6" class="st106" width="1.5" height="0.8"/>
		<polygon class="st106" points="85.8,90.4 85.8,89.6 84.3,89.6 84.3,90.4 83.5,90.4 83.5,92.7 84.3,92.7 84.3,93.4 85.8,93.4 
			85.8,92.7 84.3,92.7 84.3,90.4 85.8,90.4 85.8,92.7 86.6,92.7 86.6,90.4 		"/>
		<g class="st100">
			<g>
				<defs>
					<rect id="SVGID_151_" x="56.9" y="32.8" width="14.3" height="13.4"/>
				</defs>
				<clipPath id="SVGID_152_">
					<use xlink:href="#SVGID_151_"  style="overflow:visible;"/>
				</clipPath>
				<path class="st107" d="M70.8,34.6L70.8,34.6L70.8,34.6l-1.8-1c-0.6-0.3-1.2-0.5-1.8-0.8l0,0l0,0L65,33.5l-1.1,0.3
					c-0.4,0.1-0.7,0.3-1.1,0.4l0,0l0,0l-3.7,3l0,0l0,0l-2.1,4.8l0,0.1l0,0.1l1.6,3.3l0,0.1l0.1,0c1.9,0.4,3.8,0.6,5.7,0.6
					c1,0,1.9,0,2.9-0.1c1-0.1,1.9-0.3,2.8-0.5c0.4-0.8,0.7-1.7,0.9-2.7c0.2-0.9,0.2-1.9,0.3-2.8C71.3,38.3,71.1,36.4,70.8,34.6"/>
			</g>
		</g>
		<g class="st100">
			<g>
				<defs>
					<rect id="SVGID_153_" x="127.1" y="31.4" width="13.2" height="12.4"/>
				</defs>
				<clipPath id="SVGID_154_">
					<use xlink:href="#SVGID_153_"  style="overflow:visible;"/>
				</clipPath>
				<path class="st108" d="M140.3,40l-2-4.5l0,0l0,0l-3.4-2.8l0,0l0,0c-0.3-0.1-0.7-0.2-1-0.3l-1-0.3l-2.1-0.6h0h0
					c-0.5,0.2-1.1,0.5-1.6,0.7l-1.6,0.8l-0.1,0l0,0.1c-0.3,1.7-0.5,3.4-0.4,5.2c0,0.9,0.1,1.7,0.3,2.6c0.1,0.9,0.4,1.7,0.8,2.5
					c0.9,0.2,1.7,0.3,2.6,0.5c0.9,0.1,1.8,0.1,2.7,0.1c1.8,0,3.6-0.2,5.3-0.6l0.1,0l0-0.1L140.3,40L140.3,40L140.3,40z"/>
			</g>
		</g>
		<path class="st109" d="M54.2,39.6l2.2-5l3.8-3.2l4.6-1.6l3.6,1.9c0.7,4.3,0.7,8.2-0.6,11.5c-3.8,0.7-7.8,0.8-11.9-0.1L54.2,39.6z"
			/>
		<g class="st110">
			<g>
				<defs>
					<rect id="SVGID_155_" x="56.4" y="31.4" width="7.3" height="6.8"/>
				</defs>
				<clipPath id="SVGID_156_">
					<use xlink:href="#SVGID_155_"  style="overflow:visible;"/>
				</clipPath>
				<polygon class="st111" points="56.4,34.6 56.8,38.2 60.5,37.9 63.1,35.6 63.7,32.3 60.2,31.4 				"/>
			</g>
		</g>
		<g class="st110">
			<g>
				<defs>
					<rect id="SVGID_157_" x="55.9" y="37.9" width="6.2" height="5.2"/>
				</defs>
				<clipPath id="SVGID_158_">
					<use xlink:href="#SVGID_157_"  style="overflow:visible;"/>
				</clipPath>
				<polygon class="st112" points="60.5,37.9 56.8,38.2 55.9,43.1 62.1,42.8 				"/>
			</g>
		</g>
		<polygon class="st113" points="63.1,35.6 60.5,37.9 62.1,42.8 67.5,37.9 		"/>
		<polygon class="st114" points="63.7,32.3 63.1,35.6 67.5,37.9 68.4,31.7 		"/>
		<polygon class="st114" points="62.1,42.8 67.5,37.9 67.8,43.2 		"/>
		<g class="st115">
			<g>
				<defs>
					<rect id="SVGID_159_" x="56.7" y="32.2" width="3.3" height="5.6"/>
				</defs>
				<clipPath id="SVGID_160_">
					<use xlink:href="#SVGID_159_"  style="overflow:visible;"/>
				</clipPath>
				<path class="st116" d="M59.9,32.2c-1.1,0.9-2.1,1.8-3.2,2.6c0.1,1,0.2,1.9,0.3,2.9c1,0.1,2,0.1,3-0.2c-0.7,0-1.4-0.6-1.6-1.3
					c-0.2-0.7-0.1-1.5,0.2-2.1C59,33.5,59.4,32.8,59.9,32.2"/>
			</g>
		</g>
		<g class="st115">
			<g>
				<defs>
					<rect id="SVGID_161_" x="56.3" y="38.1" width="3.6" height="4.6"/>
				</defs>
				<clipPath id="SVGID_162_">
					<use xlink:href="#SVGID_161_"  style="overflow:visible;"/>
				</clipPath>
				<path class="st117" d="M59.9,38.1c-0.9,0.2-1.8,0.3-2.7,0.3c-0.3,1.4-0.6,2.8-0.9,4.3c0.6,0.1,1.1,0,1.7,0
					c-0.5-0.7-0.7-1.8-0.3-2.6S59,38.2,59.9,38.1"/>
			</g>
		</g>
		<g class="st115">
			<g>
				<defs>
					<rect id="SVGID_163_" x="54.4" y="35.7" width="2" height="4.9"/>
				</defs>
				<clipPath id="SVGID_164_">
					<use xlink:href="#SVGID_163_"  style="overflow:visible;"/>
				</clipPath>
				<path class="st118" d="M56.4,37c-0.1-0.5-0.2-0.9-0.3-1.3c-0.6,1.2-1.2,2.6-1.7,3.8c0.2,0.4,0.3,0.8,0.5,1.1c0-0.7,0-1.4,0.1-2
					C55.2,38,55.8,37.4,56.4,37"/>
			</g>
		</g>
		<path class="st114" d="M63.3,36.1c1.1,0.7,2.2,1.3,3.3,1.9c-1.2,1.3-2.5,2.5-3.8,3.7c-0.1-0.2-0.2-0.5-0.3-0.7
			c0.5,0.1,0.9-0.3,1.1-0.7c0.3-0.6,0.4-1.3,0.3-2c-0.2-0.7-0.6-1.2-1.2-1.6C62.9,36.5,63.1,36.3,63.3,36.1"/>
		<g class="st115">
			<g>
				<defs>
					<rect id="SVGID_165_" x="61.2" y="30" width="4.9" height="1.7"/>
				</defs>
				<clipPath id="SVGID_166_">
					<use xlink:href="#SVGID_165_"  style="overflow:visible;"/>
				</clipPath>
				<path class="st119" d="M66.2,30.8c-0.5-0.3-1-0.5-1.5-0.8c-1.1,0.5-2.2,1-3.4,1.3c0.4,0.1,0.8,0.2,1.2,0.4
					c0-0.2,0.1-0.3,0.2-0.4C63.6,30.6,65,30.4,66.2,30.8"/>
			</g>
		</g>
		<path class="st113" d="M63.9,33.8c0-0.4,0-0.8,0.1-1.1c1.2-0.4,2.5-0.5,3.7-0.5c-0.2,1.6-0.5,3.1-0.9,4.7
			c-0.2-0.1-0.3-0.1-0.5-0.2c0.2-0.5,0.5-1.1,0.5-1.7c0-0.6-0.2-1.2-0.7-1.5c-0.3-0.2-0.7-0.3-1.1-0.2
			C64.8,33.3,64.2,33.6,63.9,33.8"/>
		<g class="st110">
			<g>
				<defs>
					<rect id="SVGID_167_" x="64.8" y="32.5" width="2.6" height="1.6"/>
				</defs>
				<clipPath id="SVGID_168_">
					<use xlink:href="#SVGID_167_"  style="overflow:visible;"/>
				</clipPath>
				<path class="st120" d="M67.4,32.5c-0.1,0.5-0.2,1-0.3,1.5c-0.2-0.5-0.5-0.8-0.9-1.1c-0.4-0.2-0.9-0.3-1.4-0.1
					C65.7,32.6,66.5,32.4,67.4,32.5"/>
			</g>
		</g>
		<path class="st113" d="M60.4,38.7c0.4,1.2,0.8,2.5,1.2,3.7c-0.8,0.1-1.6,0.1-2.4,0.2c0.6-0.3,1-1.1,1.1-1.8
			C60.4,40.1,60.4,39.4,60.4,38.7"/>
		<path class="st113" d="M60.9,32c0.7,0.4,1.6,0.7,2.3,0.8c-0.2,0.9-0.3,1.8-0.5,2.6c-0.4,0.3-0.7,0.6-1.1,1
			C61.2,35,60.8,33.4,60.9,32"/>
		<path class="st113" d="M67.5,42.6c0-1.3-0.2-2.6-0.4-3.9c-0.7,0.7-1.4,1.3-2.1,2c0.3-0.2,0.8-0.4,1.1-0.2c0.3,0.1,0.4,0.3,0.6,0.6
			C67,41.4,67.3,42.1,67.5,42.6"/>
		<path class="st121" d="M62.5,30.5l-1.2,0.4c-0.4,0.1-0.8,0.3-1.1,0.4l0,0l0,0l-3.8,3.2l0,0l0,0l-2.2,5l0,0.1l0,0.1l1.7,3.5l0,0.1
			l0.1,0c2,0.4,4,0.6,6,0.6c1,0,2,0,3-0.2c1-0.1,2-0.3,3-0.5c-1,0.1-2,0.3-3,0.3c-1,0-2,0.1-3,0.1c-2,0-3.9-0.2-5.9-0.6l-1.6-3.4
			l2.2-5l3.8-3.1c0.4-0.1,0.8-0.3,1.1-0.4l1.1-0.4l2.3-0.9L62.5,30.5z"/>
		<path class="st122" d="M68.4,31.6l-1.8-0.9c-0.6-0.3-1.2-0.6-1.8-0.8c0.6,0.4,1.1,0.7,1.7,1.1l1.7,0.9c0.3,1.9,0.5,3.8,0.5,5.7
			c0,1-0.1,1.9-0.3,2.9c-0.2,0.9-0.3,1.9-0.6,2.8c0.4-0.9,0.8-1.8,0.9-2.8c0.2-1,0.3-1.9,0.3-2.9C69,35.5,68.8,33.6,68.4,31.6
			L68.4,31.6L68.4,31.6z"/>
		<path class="st109" d="M142.3,36.9l-2-4.5l-3.4-2.8l-4.1-1.4l-3.2,1.7c-0.6,3.8-0.6,7.3,0.5,10.2c3.4,0.6,6.9,0.7,10.6-0.1
			L142.3,36.9z"/>
		<g class="st110">
			<g>
				<defs>
					<rect id="SVGID_169_" x="133.9" y="29.7" width="6.4" height="6"/>
				</defs>
				<clipPath id="SVGID_170_">
					<use xlink:href="#SVGID_169_"  style="overflow:visible;"/>
				</clipPath>
				<polygon class="st123" points="140.4,32.5 140,35.7 136.8,35.4 134.4,33.3 133.9,30.5 137,29.7 				"/>
			</g>
		</g>
		<g class="st110">
			<g>
				<defs>
					<rect id="SVGID_171_" x="135.4" y="35.4" width="5.5" height="4.6"/>
				</defs>
				<clipPath id="SVGID_172_">
					<use xlink:href="#SVGID_171_"  style="overflow:visible;"/>
				</clipPath>
				<polygon class="st124" points="136.8,35.4 140,35.7 140.9,40 135.4,39.8 				"/>
			</g>
		</g>
		<polygon class="st113" points="134.4,33.3 136.8,35.4 135.4,39.8 130.6,35.4 		"/>
		<polygon class="st114" points="133.9,30.5 134.4,33.3 130.6,35.4 129.8,29.9 		"/>
		<polygon class="st114" points="135.4,39.8 130.6,35.4 130.3,40.1 		"/>
		<g class="st115">
			<g>
				<defs>
					<rect id="SVGID_173_" x="137.2" y="30.4" width="2.9" height="5"/>
				</defs>
				<clipPath id="SVGID_174_">
					<use xlink:href="#SVGID_173_"  style="overflow:visible;"/>
				</clipPath>
				<path class="st125" d="M137.3,30.4c1,0.8,1.9,1.6,2.8,2.3c-0.1,0.9-0.2,1.7-0.3,2.6c-0.9,0.1-1.8,0.1-2.7-0.2
					c0.6,0,1.2-0.6,1.4-1.2c0.2-0.6,0.1-1.3-0.2-1.9C138.1,31.5,137.7,30.9,137.3,30.4"/>
			</g>
		</g>
		<g class="st115">
			<g>
				<defs>
					<rect id="SVGID_175_" x="137.3" y="35.6" width="3.2" height="4"/>
				</defs>
				<clipPath id="SVGID_176_">
					<use xlink:href="#SVGID_175_"  style="overflow:visible;"/>
				</clipPath>
				<path class="st126" d="M137.3,35.6c0.8,0.2,1.6,0.2,2.4,0.2c0.3,1.3,0.5,2.5,0.8,3.8c-0.5,0-1,0-1.5,0c0.5-0.6,0.6-1.6,0.3-2.3
					C139,36.5,138.1,35.7,137.3,35.6"/>
			</g>
		</g>
		<g class="st115">
			<g>
				<defs>
					<rect id="SVGID_177_" x="140.4" y="33.5" width="1.7" height="4.4"/>
				</defs>
				<clipPath id="SVGID_178_">
					<use xlink:href="#SVGID_177_"  style="overflow:visible;"/>
				</clipPath>
				<path class="st127" d="M140.4,34.7c0.1-0.4,0.2-0.8,0.3-1.2c0.5,1.1,1,2.3,1.5,3.4c-0.1,0.3-0.3,0.7-0.5,1c0-0.6,0-1.2-0.1-1.8
					C141.4,35.5,140.9,34.9,140.4,34.7"/>
			</g>
		</g>
		<path class="st114" d="M134.3,33.8c-0.9,0.6-1.9,1.2-3,1.7c1.1,1.2,2.2,2.3,3.4,3.3c0.1-0.2,0.2-0.4,0.3-0.6
			c-0.4,0.1-0.8-0.3-1-0.7c-0.3-0.5-0.4-1.2-0.2-1.7c0.2-0.6,0.6-1.1,1.1-1.4C134.6,34.2,134.4,34,134.3,33.8"/>
		<g class="st115">
			<g>
				<defs>
					<rect id="SVGID_179_" x="131.7" y="28.4" width="4.4" height="1.5"/>
				</defs>
				<clipPath id="SVGID_180_">
					<use xlink:href="#SVGID_179_"  style="overflow:visible;"/>
				</clipPath>
				<path class="st128" d="M131.7,29.1c0.5-0.2,0.9-0.5,1.4-0.7c1,0.5,2,0.9,3,1.2c-0.4,0.1-0.7,0.2-1.1,0.3c0-0.1-0.1-0.3-0.2-0.4
					C134,28.9,132.7,28.7,131.7,29.1"/>
			</g>
		</g>
		<path class="st113" d="M133.7,31.8c0-0.3,0-0.7-0.1-1c-1.1-0.3-2.2-0.5-3.3-0.4c0.2,1.4,0.5,2.8,0.8,4.1c0.1-0.1,0.3-0.1,0.4-0.2
			c-0.2-0.5-0.5-1-0.5-1.5c0-0.5,0.2-1.1,0.6-1.3c0.3-0.2,0.7-0.2,1-0.2C132.9,31.3,133.5,31.6,133.7,31.8"/>
		<g class="st110">
			<g>
				<defs>
					<rect id="SVGID_181_" x="130.6" y="30.6" width="2.3" height="1.4"/>
				</defs>
				<clipPath id="SVGID_182_">
					<use xlink:href="#SVGID_181_"  style="overflow:visible;"/>
				</clipPath>
				<path class="st129" d="M130.6,30.6c0.1,0.5,0.2,0.9,0.2,1.4c0.1-0.4,0.4-0.7,0.8-0.9s0.8-0.2,1.2-0.1
					C132.1,30.8,131.4,30.5,130.6,30.6"/>
			</g>
		</g>
		<path class="st113" d="M136.9,36.1c-0.4,1.1-0.7,2.2-1.1,3.3l2.2,0.2c-0.6-0.3-0.9-0.9-1-1.6C136.8,37.4,136.8,36.8,136.9,36.1"/>
		<path class="st113" d="M136.4,30.1c-0.7,0.3-1.4,0.6-2.1,0.8c0.1,0.8,0.3,1.6,0.4,2.3c0.3,0.3,0.6,0.6,1,0.8
			C136.1,32.9,136.5,31.4,136.4,30.1"/>
		<path class="st113" d="M130.6,39.6c0-1.2,0.2-2.3,0.3-3.5l1.8,1.7c-0.3-0.2-0.7-0.3-1-0.2c-0.2,0.1-0.4,0.3-0.5,0.5
			C131,38.5,130.7,39.1,130.6,39.6"/>
		<path class="st121" d="M135,28.9l1,0.3c0.3,0.1,0.7,0.2,1,0.3l0,0l0,0l3.4,2.8l0,0l0,0l2,4.5l0,0l0,0l-1.5,3.1l0,0.1l-0.1,0
			c-1.7,0.4-3.5,0.5-5.3,0.6c-0.9,0-1.8,0-2.7-0.1c-0.9-0.1-1.8-0.3-2.6-0.5c0.9,0.1,1.8,0.2,2.6,0.3c0.9,0,1.8,0.1,2.6,0.1
			c1.7,0,3.5-0.2,5.2-0.5l1.4-3l-1.9-4.4l-3.4-2.8c-0.3-0.1-0.7-0.2-1-0.4l-1-0.4l-2-0.8L135,28.9z"/>
		<path class="st122" d="M129.7,29.8l1.6-0.8c0.5-0.2,1.1-0.5,1.6-0.7c-0.5,0.3-1,0.6-1.5,0.9l-1.5,0.8c-0.3,1.7-0.4,3.4-0.4,5.1
			c0,0.9,0.1,1.7,0.2,2.5c0.2,0.8,0.3,1.7,0.6,2.5c-0.4-0.8-0.7-1.6-0.8-2.5c-0.1-0.9-0.2-1.7-0.3-2.6
			C129.2,33.3,129.4,31.6,129.7,29.8L129.7,29.8L129.7,29.8z"/>
	</g>
</g>
</svg>
